<?xml version="1.0" encoding="utf-8"?>
<!-- Generator: Adobe Illustrator 17.0.0, SVG Export Plug-In . SVG Version: 6.00 Build 0)  -->
<!DOCTYPE svg PUBLIC "-//W3C//DTD SVG 1.1//EN" "http://www.w3.org/Graphics/SVG/1.1/DTD/svg11.dtd">
<svg version="1.1" id="Layer_1" xmlns="http://www.w3.org/2000/svg" xmlns:xlink="http://www.w3.org/1999/xlink" x="0px" y="0px"
	 width="105px" height="105px" viewBox="6.5 -17.5 105 105" enable-background="new 6.5 -17.5 105 105" xml:space="preserve">
<circle fill="#F05D5C" cx="59" cy="35" r="52.5"/>
<g>
	<g>
		<path fill="#FFFFFF" d="M58.5-2.5c12.428,0,15.602,0.506,17.373,1.502C79.62,1.11,81.5,5.266,81.5,7v35
			c0,14.572-0.415,16.919-0.817,19.188c-0.043,0.243-0.086,0.483-0.127,0.737c-0.887,5.372-4.156,9.207-6.676,9.68
			C70.274,72.281,68.285,72.5,58.5,72.5c-9.681,0-11.288-0.215-14.907-0.895c-3.164-0.595-5.869-5.488-6.561-9.68
			C36.61,59.373,36.5,58.044,36.5,42V7c0-1.766,1.53-5.925,5.215-7.998C43.562-2.037,46.424-2.5,58.5-2.5 M58.5-3.5
			c-12.22,0-15.215,0.471-17.276,1.63C37.305,0.335,35.5,4.792,35.5,7c0,4.143,0,20.112,0,35c0,16.199,0.111,17.462,0.545,20.087
			c0.767,4.647,3.713,9.814,7.363,10.5c3.65,0.686,5.217,0.913,15.092,0.913s11.913-0.228,15.564-0.913s6.711-5.853,7.478-10.5
			C81.975,59.462,82.5,58.199,82.5,42c0-14.888,0-30.857,0-35c0-2.207-2.218-6.665-6.137-8.87C74.302-3.029,70.72-3.5,58.5-3.5
			L58.5-3.5z"/>
	</g>
	<g>
		<path fill-rule="evenodd" clip-rule="evenodd" fill="#FFFFFF" d="M63.596,5.394c0-0.074,0.043-0.112,0.128-0.112h0.186
			c0.089,0,0.163,0.043,0.223,0.108l1.133,1.188c0.037,0.038,0.085,0.045,0.085,0.001l0-1.203c0-0.059,0.031-0.094,0.105-0.095
			l0.183,0.001c0.056-0.001,0.105,0.024,0.104,0.092l0.001,1.828c-0.001,0.106-0.009,0.127-0.103,0.127H65.47
			c-0.073,0-0.112-0.014-0.162-0.067l-1.209-1.273c-0.052-0.056-0.105-0.056-0.106,0.016l0,1.235c0,0.056-0.026,0.089-0.094,0.089
			h-0.21c-0.061,0-0.093-0.027-0.093-0.085L63.596,5.394L63.596,5.394z M62.525,5.282h0.289c0.038,0,0.068,0.031,0.068,0.069v1.908
			c0,0.038-0.031,0.069-0.068,0.069h-0.289c-0.038,0-0.068-0.031-0.068-0.069V5.351C62.457,5.313,62.487,5.282,62.525,5.282
			L62.525,5.282z M59.368,5.423c0-0.095,0.047-0.142,0.142-0.141l0.246,0c0.132,0.001,0.152,0.038,0.226,0.171l0.536,0.994
			c0.028,0.051,0.063,0.051,0.092,0l0.582-1.025c0.043-0.078,0.089-0.139,0.15-0.14h0.291c0.085,0,0.125,0.012,0.126,0.128
			l-0.001,1.808c0,0.087-0.028,0.11-0.103,0.111h-0.208c-0.079,0-0.105-0.04-0.105-0.111l0-1.324l-0.716,1.324
			c-0.049,0.091-0.093,0.089-0.142,0l-0.728-1.343l0,1.343c-0.002,0.074-0.033,0.111-0.096,0.111l-0.18,0
			c-0.069-0.001-0.113-0.03-0.113-0.112V5.423L59.368,5.423z M57.254,5.728c0-0.079,0.052-0.116,0.148-0.116l0.553-0.001
			c0.23,0,0.462,0.09,0.462,0.3c0.001,0.179-0.152,0.284-0.435,0.282l-0.579,0.001c-0.086,0.001-0.149-0.037-0.149-0.116
			L57.254,5.728L57.254,5.728z M56.821,5.41c0-0.078,0.052-0.128,0.147-0.128l1.06-0.001c0.466,0,0.835,0.148,0.837,0.609
			c-0.002,0.303-0.141,0.455-0.446,0.55c-0.076,0.023-0.089,0.07-0.041,0.141l0.467,0.667c0.04,0.057,0.019,0.081-0.044,0.081
			l-0.284,0c-0.079,0.001-0.109-0.008-0.149-0.063l-0.481-0.656c-0.055-0.079-0.131-0.113-0.235-0.112l-0.388,0.001l-0.008,0.72
			c0,0.074-0.032,0.111-0.094,0.111l-0.238,0c-0.077,0-0.102-0.043-0.102-0.112V5.41L56.821,5.41z M55.285,5.899
			c0.018-0.041,0.043-0.043,0.063,0l0.368,0.759c0.027,0.056,0.008,0.086-0.066,0.087h-0.672c-0.055,0-0.076-0.036-0.053-0.081
			L55.285,5.899L55.285,5.899z M55.111,5.447c0.049-0.1,0.08-0.166,0.238-0.165C55.5,5.282,55.53,5.34,55.581,5.441l0.901,1.757
			c0.056,0.109,0.027,0.131-0.071,0.131h-0.269c-0.083,0-0.104-0.009-0.134-0.072l-0.075-0.155
			c-0.025-0.052-0.047-0.063-0.156-0.063l-0.93,0c-0.072,0-0.104,0.017-0.126,0.065l-0.065,0.138
			c-0.035,0.075-0.058,0.087-0.138,0.087h-0.204c-0.072,0-0.098-0.031-0.062-0.104L55.111,5.447L55.111,5.447z M53.629,5.77
			c0.075,0.038,0.124,0.042,0.153-0.008l0.094-0.178c0.032-0.055,0.014-0.097-0.033-0.124c-0.427-0.238-1.215-0.308-1.676-0.033
			c-0.575,0.352-0.648,1.203-0.215,1.596c0.449,0.44,1.257,0.387,1.884,0.175c0.115-0.045,0.127-0.091,0.127-0.257V6.34
			c0.001-0.087-0.056-0.145-0.143-0.146l-0.823,0.001c-0.061,0-0.091,0.031-0.091,0.091V6.41c0,0.058,0.034,0.086,0.102,0.087
			l0.477,0c0.071,0,0.102,0.03,0.102,0.084l0,0.322c-0.52,0.197-1.076,0.14-1.305-0.147c-0.296-0.405-0.099-1,0.312-1.09
			C52.962,5.577,53.307,5.611,53.629,5.77L53.629,5.77z"/>
		<path fill-rule="evenodd" clip-rule="evenodd" fill="#FFFFFF" d="M64.556,3.419l-0.638,1.114c-0.078,0.12-0.045,0.244,0.099,0.244
			l1.294-0.002c0.176,0,0.204-0.097,0.105-0.26L64.789,3.42C64.729,3.327,64.611,3.325,64.556,3.419L64.556,3.419z"/>
	</g>
	<line fill="none" stroke="#FFFFFF" stroke-width="0.5" stroke-miterlimit="10" x1="79.5" y1="57.5" x2="38.5" y2="57.5"/>
	<g>
		<path fill="#FFFFFF" d="M58,2c9.367,0,17.478,1.177,18.729,1.658C78.025,4.157,79.001,5.201,79,6.087
			c-0.001,0.694-0.001,17.422,0,49.719L79,59c0,1.371-0.876,2.629-1.724,3.053C76.425,62.479,69.812,63.5,58.5,63.5
			c-11.736,0-17.504-1.061-18.276-1.447C39.469,61.675,39,60.506,39,59l0-3.196c0.001-32.354,0.001-49.111,0-49.805
			c-0.002-0.919,0.838-1.86,2.088-2.341C42.239,3.215,48.384,2,58,2 M58,1.5c-9.333,0-15.738,1.17-17.092,1.691S38.498,4.786,38.5,6
			s0,51.417,0,53s0.5,3,1.5,3.5S47.25,64,58.5,64s18-1,19-1.5s2-1.917,2-3.5s-0.002-51.699,0-52.913s-1.238-2.375-2.592-2.896
			C75.554,2.67,67.333,1.5,58,1.5L58,1.5z"/>
	</g>
	<g>
		<path fill="#FFFFFF" d="M74.5,9.5c0.552,0,1,0.448,1,1v40c0,0.552-0.448,1-1,1h-31c-0.552,0-1-0.448-1-1v-40c0-0.552,0.448-1,1-1
			H74.5 M74.5,9h-31C42.673,9,42,9.673,42,10.5v40c0,0.827,0.673,1.5,1.5,1.5h31c0.827,0,1.5-0.673,1.5-1.5v-40
			C76,9.673,75.327,9,74.5,9L74.5,9z"/>
	</g>
	<path fill="none" stroke="#FFFFFF" stroke-width="0.5" stroke-miterlimit="10" d="M54.375,68.848
		c-0.029,0.552-0.499,0.975-1.051,0.946l-7.989-0.419c-0.552-0.029-0.975-0.499-0.946-1.051l0.052-0.999
		c0.029-0.552,0.499-0.975,1.051-0.946l7.989,0.419c0.552,0.029,0.975,0.499,0.946,1.051L54.375,68.848z"/>
	<path fill="none" stroke="#FFFFFF" stroke-width="0.5" stroke-miterlimit="10" d="M74.427,68.325
		c0.029,0.552-0.395,1.022-0.946,1.051l-7.989,0.419c-0.552,0.029-1.022-0.395-1.051-0.946l-0.052-0.999
		c-0.029-0.552,0.395-1.022,0.946-1.051l7.989-0.419c0.552-0.029,1.022,0.395,1.051,0.946L74.427,68.325z"/>
	<polygon fill="#FFFFFF" points="67,18.502 53.326,31.175 58.011,31.17 51,42.498 65.985,28.513 61.329,28.518 	"/>
</g>
</svg>
