<?xml version="1.0" encoding="UTF-8" standalone="no"?>
<svg width="128px" height="128px" viewBox="0 0 128 128" version="1.1" xmlns="http://www.w3.org/2000/svg" xmlns:xlink="http://www.w3.org/1999/xlink" xmlns:sketch="http://www.bohemiancoding.com/sketch/ns">
    <!-- Generator: Sketch 3.0.1 (7597) - http://www.bohemiancoding.com/sketch -->
    <title>add</title>
    <description>Created with Sketch.</description>
    <defs></defs>
    <g id="Page-1" stroke="none" stroke-width="1" fill="none" fill-rule="evenodd" sketch:type="MSPage">
        <g id="add" sketch:type="MSArtboardGroup" fill="#000000">
            <path d="M54,54 L54,18.0050964 C54,16.8890615 54.8913093,16 55.9907951,16 L72.0092049,16 C73.1017876,16 74,16.8977123 74,18.0050964 L74,54 L109.994904,54 C111.110939,54 112,54.8913093 112,55.9907951 L112,72.0092049 C112,73.1017876 111.102288,74 109.994904,74 L74,74 L74,109.994904 C74,111.110939 73.1086907,112 72.0092049,112 L55.9907951,112 C54.8982124,112 54,111.102288 54,109.994904 L54,74 L18.0050964,74 C16.8890615,74 16,73.1086907 16,72.0092049 L16,55.9907951 C16,54.8982124 16.8977123,54 18.0050964,54 L54,54 Z" id="Rectangle-1" sketch:type="MSShapeGroup"></path>
        </g>
    </g>
</svg>