<?xml version="1.0" encoding="utf-8"?>
<!-- Generator: Adobe Illustrator 17.1.0, SVG Export Plug-In . SVG Version: 6.00 Build 0)  -->
<!DOCTYPE svg PUBLIC "-//W3C//DTD SVG 1.1 Tiny//EN" "http://www.w3.org/Graphics/SVG/1.1/DTD/svg11-tiny.dtd">
<svg version="1.1" baseProfile="tiny" xmlns="http://www.w3.org/2000/svg" xmlns:xlink="http://www.w3.org/1999/xlink" x="0px"
	 y="0px" viewBox="0 0 512 512" xml:space="preserve">
<g id="baseline">
</g>
<g id="Layer_2">
	<path d="M410.644,246H292V127.356c0-6.272-5.084-11.356-11.356-11.356h-49.288c-6.272,0-11.356,5.084-11.356,11.356V246H101.356
		C95.084,246,90,251.084,90,257.356v49.289C90,312.916,95.084,318,101.356,318H220v118.644c0,6.272,5.084,11.356,11.356,11.356
		h49.288c6.272,0,11.356-5.084,11.356-11.356V318h118.644c6.272,0,11.356-5.084,11.356-11.356v-49.289
		C422,251.084,416.916,246,410.644,246z"/>
</g>
</svg>
