<?xml version="1.0" encoding="utf-8"?>
<!-- Generator: Adobe Illustrator 17.1.0, SVG Export Plug-In . SVG Version: 6.00 Build 0)  -->
<!DOCTYPE svg PUBLIC "-//W3C//DTD SVG 1.1 Tiny//EN" "http://www.w3.org/Graphics/SVG/1.1/DTD/svg11-tiny.dtd">
<svg version="1.1" baseProfile="tiny" id="Layer_1" xmlns="http://www.w3.org/2000/svg" xmlns:xlink="http://www.w3.org/1999/xlink"
	 x="0px" y="0px" viewBox="0 0 512 512" xml:space="preserve">
<path d="M240.833,409.78c4.435-4.435,4.435-11.625,0-16.059L98.082,250.97c-4.435-4.435-11.625-4.435-16.059,0l-34.796,34.796
	c-4.435,4.435-4.435,11.625,0,16.059l142.751,142.751c4.435,4.435,11.625,4.435,16.059,0L240.833,409.78z"/>
<path d="M464.773,185.84c4.435-4.435,4.435-11.625,0-16.059l-34.796-34.796c-4.435-4.435-11.625-4.435-16.059,0L155.182,393.72
	c-4.435,4.435-4.435,11.625,0,16.059l34.796,34.796c4.435,4.435,11.625,4.435,16.059,0L464.773,185.84z"/>
</svg>
