<?xml version="1.0" encoding="utf-8"?>
<!-- Generator: Adobe Illustrator 17.1.0, SVG Export Plug-In . SVG Version: 6.00 Build 0)  -->
<!DOCTYPE svg PUBLIC "-//W3C//DTD SVG 1.1 Tiny//EN" "http://www.w3.org/Graphics/SVG/1.1/DTD/svg11-tiny.dtd">
<svg version="1.1" baseProfile="tiny" id="Layer_1" xmlns="http://www.w3.org/2000/svg" xmlns:xlink="http://www.w3.org/1999/xlink"
	 x="0px" y="0px" viewBox="0 0 512 512" xml:space="preserve">
<path d="M240.118,415.438c4.644-4.644,4.644-12.173,0-16.816L90.637,249.14c-4.644-4.644-12.173-4.644-16.816,0l-36.437,36.437
	c-4.644,4.644-4.644,12.173,0,16.816l149.481,149.481c4.644,4.644,12.173,4.644,16.816,0L240.118,415.438z"/>
<path d="M474.616,180.939c4.644-4.644,4.644-12.173,0-16.816l-36.437-36.437c-4.644-4.644-12.173-4.644-16.816,0L150.429,398.621
	c-4.644,4.644-4.644,12.173,0,16.816l36.437,36.437c4.644,4.644,12.173,4.644,16.816,0L474.616,180.939z"/>
</svg>
