<?xml version="1.0" encoding="utf-8"?>
<!-- Generator: Adobe Illustrator 17.1.0, SVG Export Plug-In . SVG Version: 6.00 Build 0)  -->
<!DOCTYPE svg PUBLIC "-//W3C//DTD SVG 1.1 Tiny//EN" "http://www.w3.org/Graphics/SVG/1.1/DTD/svg11-tiny.dtd">
<svg version="1.1" baseProfile="tiny" xmlns="http://www.w3.org/2000/svg" xmlns:xlink="http://www.w3.org/1999/xlink" x="0px"
	 y="0px" viewBox="0 0 512 512" xml:space="preserve">
<g id="baseline">
</g>
<g id="Layer_2">
	<path d="M405.162,374.828L312.333,282l92.828-92.828c4.907-4.907,4.907-12.863,0-17.77l-38.564-38.564
		c-4.907-4.907-12.863-4.907-17.77,0L256,225.667l-92.828-92.828c-4.907-4.907-12.863-4.907-17.77,0l-38.564,38.564
		c-4.907,4.907-4.907,12.863,0,17.77L199.667,282l-92.828,92.828c-4.907,4.907-4.907,12.863,0,17.77l38.564,38.564
		c4.907,4.907,12.863,4.907,17.77,0L256,338.333l92.828,92.828c4.907,4.907,12.863,4.907,17.77,0l38.564-38.564
		C410.069,387.691,410.069,379.735,405.162,374.828z"/>
</g>
</svg>
