<?xml version="1.0" encoding="utf-8"?>
<!-- Generator: Adobe Illustrator 17.1.0, SVG Export Plug-In . SVG Version: 6.00 Build 0)  -->
<!DOCTYPE svg PUBLIC "-//W3C//DTD SVG 1.1 Tiny//EN" "http://www.w3.org/Graphics/SVG/1.1/DTD/svg11-tiny.dtd">
<svg version="1.1" baseProfile="tiny" xmlns="http://www.w3.org/2000/svg" xmlns:xlink="http://www.w3.org/1999/xlink" x="0px"
	 y="0px" viewBox="0 0 512 512" xml:space="preserve">
<g id="baseline">
</g>
<g id="Layer_2">
	<path d="M390.806,365.894L306.912,282l83.894-83.894c4.435-4.435,4.435-11.625,0-16.059l-34.852-34.852
		c-4.435-4.435-11.625-4.435-16.059,0L256,231.088l-83.894-83.894c-4.435-4.435-11.625-4.435-16.059,0l-34.852,34.852
		c-4.435,4.435-4.435,11.625,0,16.059L205.088,282l-83.894,83.894c-4.435,4.435-4.435,11.625,0,16.059l34.852,34.852
		c4.435,4.435,11.625,4.435,16.059,0L256,332.912l83.894,83.894c4.435,4.435,11.625,4.435,16.059,0l34.852-34.852
		C395.241,377.519,395.241,370.329,390.806,365.894z"/>
</g>
</svg>
