<?xml version="1.0" encoding="UTF-8" standalone="no"?>
<svg width="128px" height="128px" viewBox="0 0 128 128" version="1.1" xmlns="http://www.w3.org/2000/svg" xmlns:xlink="http://www.w3.org/1999/xlink" xmlns:sketch="http://www.bohemiancoding.com/sketch/ns">
    <!-- Generator: Sketch 3.0.1 (7597) - http://www.bohemiancoding.com/sketch -->
    <title>facebook</title>
    <description>Created with Sketch.</description>
    <defs></defs>
    <g id="Page-1" stroke="none" stroke-width="1" fill="none" fill-rule="evenodd" sketch:type="MSPage">
        <g id="facebook" sketch:type="MSArtboardGroup" fill="#000000">
            <path d="M80.0243902,106 L101.463415,106 C103.976683,106 106,103.976683 106,101.463415 L106,26.5365854 C106,24.0233171 103.976683,22 101.463415,22 L26.5365854,22 C24.0233171,22 22,24.0233171 22,26.5365854 L22,101.463415 C22,103.976683 24.0233171,106 26.5365854,106 L66.720445,106 L66.5872314,73.2905272 L55.6,73.2905272 L55.6,60.5742603 L66.5872314,60.5742603 L66.5872314,50.8716751 C66.5872314,40.7006712 72.8708481,34.3789474 82.768278,34.3789474 C88.7263649,34.3789474 92.7368421,34.8477087 92.7368421,34.8477087 L92.7368421,46.3144002 L86.0241667,46.3144002 C81.7703517,46.3144002 79.7719091,47.8157856 79.7719091,52.3417638 L79.7719091,60.5742603 L92.2973528,60.5742603 L90.6858922,73.2905272 L79.7719091,73.2905272 L79.7719091,105.791259 L80.0243902,106 Z" id="rect3000" sketch:type="MSShapeGroup"></path>
        </g>
    </g>
</svg>