<?xml version="1.0" encoding="UTF-8" standalone="no"?>
<svg width="128px" height="128px" viewBox="0 0 128 128" version="1.1" xmlns="http://www.w3.org/2000/svg" xmlns:xlink="http://www.w3.org/1999/xlink" xmlns:sketch="http://www.bohemiancoding.com/sketch/ns">
    <!-- Generator: Sketch 3.0.1 (7597) - http://www.bohemiancoding.com/sketch -->
    <title>twitter</title>
    <description>Created with Sketch.</description>
    <defs></defs>
    <g id="Page-1" stroke="none" stroke-width="1" fill="none" fill-rule="evenodd" sketch:type="MSPage">
        <g id="twitter" sketch:type="MSArtboardGroup" fill="#000000">
            <path d="M109,36.77951 C105.620253,38.2427617 102.240506,39.2182628 98.5388788,39.7060134 C102.562387,37.2672606 105.298373,33.8530067 106.585895,29.4632517 C102.884268,31.5768374 98.8607595,33.2026726 94.9981917,33.8530067 C91.4575045,29.9510022 86.9511754,28 81.6401447,28 C71.5009042,28 63.4538879,36.2917595 63.4538879,46.3719376 C63.4538879,47.6726058 63.6148282,49.1358575 63.9367089,50.5991091 C48.9692586,49.7861915 35.4502712,42.7951002 26.2766727,31.2516704 C24.6672694,34.0155902 23.8625678,37.1046771 23.8625678,40.518931 C23.8625678,46.8596882 26.920434,52.3875278 31.9095841,55.8017817 C29.0126582,55.6391982 26.2766727,54.9888641 23.7016275,53.5256125 L23.7016275,53.8507795 C23.7016275,62.6302895 29.9783002,70.2717149 38.3471971,71.8975501 C36.8987342,72.3853007 35.2893309,72.5478842 33.5189873,72.5478842 C32.2314647,72.5478842 30.9439421,72.3853007 29.9783002,72.2227171 C32.3924051,79.5389755 39.1518987,84.9042316 47.0379747,85.0668151 C40.278481,90.2694878 32.7142857,93.0334076 24.3453888,93.0334076 C22.8969259,93.0334076 21.4484629,92.8708241 20,92.7082405 C28.3688969,98.2360802 37.8643761,101 48.0036166,101 C60.8788427,101 72.7884268,96.610245 80.835443,89.4565702 C88.8824593,82.4654788 94.9981917,73.1982183 97.8951175,63.2806236 C99.3435805,58.403118 99.9873418,53.5256125 99.9873418,48.4855234 C99.9873418,47.5100223 99.9873418,46.6971047 99.8264014,46.0467706 C103.528029,43.6080178 106.585895,40.518931 109,36.77951 L109,36.77951 Z" id="Shape" sketch:type="MSShapeGroup"></path>
        </g>
    </g>
</svg>