<?xml version="1.0" encoding="utf-8"?>
<!-- Generator: Adobe Illustrator 17.0.0, SVG Export Plug-In . SVG Version: 6.00 Build 0)  -->
<!DOCTYPE svg PUBLIC "-//W3C//DTD SVG 1.1//EN" "http://www.w3.org/Graphics/SVG/1.1/DTD/svg11.dtd">
<svg version="1.1" id="Layer_1" xmlns="http://www.w3.org/2000/svg" xmlns:xlink="http://www.w3.org/1999/xlink" x="0px" y="0px"
	 width="152.991px" height="23.006px" viewBox="0 0 152.991 23.006" enable-background="new 0 0 152.991 23.006"
	 xml:space="preserve">
<g id="aerobic.io">
	<g>
		<path fill-rule="evenodd" clip-rule="evenodd" fill="#FFFFFF" d="M15.058,20.785c0-2.8,0-7.793,0-7.793
			c0-1.116-0.143-2.124-0.428-3.023c-0.285-0.899-0.733-1.659-1.344-2.279c-0.591-0.599-1.339-1.059-2.245-1.38
			c-0.906-0.32-1.847-0.574-3.13-0.574c0.324,0-7.509,0-7.509,0l2.502,4.066c0,0,3.007,0,4.006,0c1.161,0,2.212,0.317,2.803,0.833
			c0.59,0.517,0.906,1.866,0.906,1.866s-3.278-0.006-4.021-0.006c-0.977,0-1.868,0.109-2.673,0.326
			c-0.805,0.217-1.497,0.543-2.077,0.977c-0.58,0.434-1.034,0.982-1.359,1.643C0.163,16.102,0,16.888,0,17.797v0.062
			c0,0.827,0.147,1.556,0.443,2.186c0.295,0.631,0.697,1.163,1.206,1.597c0.509,0.434,1.104,0.76,1.787,0.977
			c0.682,0.217,1.41,0.326,2.184,0.326c1.14,0,2.108-0.191,2.902-0.574c0.794-0.382,1.476-0.894,2.046-1.535c0,0,0,0.402,0,0.826
			c0,0.473,0.501,0.972,0.501,0.972h4.991C16.059,22.634,15.058,21.876,15.058,20.785z M10.66,16.774
			c0,0.868-0.331,1.571-0.993,2.108c-0.662,0.538-1.542,0.806-2.642,0.806c-0.754,0-1.364-0.175-1.833-0.527
			C4.724,18.81,4.49,18.314,4.49,17.673v-0.062c0-0.744,0.285-1.312,0.855-1.705c0.57-0.392,1.354-0.589,2.352-0.589
			c-0.344,0,2.963-0.003,2.963-0.003V16.774z M32.391,8.449c-0.662-0.837-1.492-1.504-2.489-2c-0.998-0.496-2.179-0.744-3.543-0.744
			c-1.202,0-2.296,0.228-3.283,0.682c-0.988,0.455-1.838,1.075-2.55,1.86c-0.713,0.786-1.268,1.705-1.665,2.76
			s-0.596,2.17-0.596,3.349v0.062c0,1.282,0.214,2.445,0.641,3.488c0.428,1.044,1.023,1.949,1.787,2.713
			c0.764,0.765,1.669,1.354,2.718,1.767c1.049,0.413,2.184,0.62,3.406,0.62c1.486,0,2.779-0.274,3.879-0.822
			c1.1-0.547,2.036-1.307,2.81-2.279l-2.657-2.387c-0.652,0.6-1.283,1.034-1.894,1.302c-0.611,0.269-1.303,0.403-2.077,0.403
			c-1.038,0-1.909-0.274-2.611-0.822c-0.703-0.547-1.166-1.359-1.39-2.434H34.27c0.02-0.227,0.035-0.444,0.046-0.651
			c0.01-0.206,0.015-0.403,0.015-0.589c0-1.178-0.158-2.31-0.473-3.395C33.542,10.247,33.053,9.286,32.391,8.449z M22.816,13.022
			c0.183-1.075,0.575-1.932,1.176-2.573c0.6-0.641,1.39-0.961,2.367-0.961s1.761,0.326,2.352,0.977
			c0.59,0.651,0.957,1.504,1.1,2.558H22.816z M42.425,9.364V6.015h-4.643v16.619h4.643v-6.139c0-2.005,0.443-3.483,1.329-4.434
			c0.886-0.951,2.102-1.426,3.65-1.426h0.244v-4.93c-1.385-0.062-2.484,0.248-3.299,0.93C43.534,7.317,42.893,8.227,42.425,9.364z
			 M64.951,8.201c-0.784-0.775-1.716-1.385-2.795-1.829c-1.08-0.444-2.25-0.667-3.513-0.667c-1.283,0-2.464,0.228-3.543,0.682
			c-1.079,0.455-2.016,1.075-2.81,1.86c-0.794,0.786-1.416,1.7-1.863,2.744c-0.448,1.044-0.672,2.166-0.672,3.364v0.062
			c0,1.199,0.224,2.321,0.672,3.364c0.448,1.044,1.064,1.953,1.848,2.728c0.784,0.775,1.715,1.385,2.795,1.829
			c1.079,0.444,2.25,0.667,3.513,0.667c1.283,0,2.464-0.228,3.543-0.682c1.079-0.454,2.016-1.075,2.81-1.86
			c0.794-0.785,1.415-1.7,1.863-2.744c0.448-1.044,0.672-2.165,0.672-3.364v-0.062c0-1.199-0.224-2.32-0.672-3.364
			C66.35,9.886,65.734,8.976,64.951,8.201z M62.889,14.418c0,0.62-0.097,1.204-0.29,1.752c-0.194,0.548-0.473,1.029-0.84,1.442
			c-0.366,0.414-0.809,0.739-1.329,0.977c-0.519,0.238-1.115,0.357-1.787,0.357c-0.652,0-1.237-0.124-1.756-0.372
			c-0.519-0.248-0.973-0.584-1.359-1.008c-0.387-0.423-0.682-0.909-0.886-1.457c-0.204-0.547-0.305-1.132-0.305-1.752v-0.062
			c0-0.62,0.096-1.204,0.29-1.752c0.193-0.547,0.473-1.028,0.84-1.442c0.367-0.413,0.809-0.739,1.329-0.977
			c0.519-0.237,1.115-0.357,1.787-0.357c0.631,0,1.211,0.124,1.741,0.372c0.529,0.248,0.987,0.584,1.374,1.008
			c0.387,0.424,0.682,0.91,0.886,1.457c0.203,0.548,0.305,1.132,0.305,1.752V14.418z M85.735,7.922
			c-0.693-0.733-1.487-1.287-2.382-1.659c-0.896-0.372-1.823-0.558-2.779-0.558c-1.222,0-2.235,0.253-3.039,0.76
			c-0.805,0.507-1.492,1.153-2.062,1.938V0H70.83v22.634h4.643v-2.17c0.55,0.662,1.227,1.24,2.031,1.736
			c0.804,0.496,1.827,0.744,3.07,0.744c0.977,0,1.914-0.186,2.81-0.558c0.896-0.372,1.685-0.925,2.367-1.659
			c0.682-0.734,1.232-1.633,1.649-2.698c0.417-1.064,0.626-2.289,0.626-3.674v-0.062c0-1.385-0.209-2.609-0.626-3.674
			C86.982,9.555,86.427,8.656,85.735,7.922z M83.383,14.356c0,0.703-0.107,1.333-0.321,1.891c-0.214,0.558-0.504,1.039-0.87,1.442
			c-0.367,0.403-0.789,0.713-1.268,0.93c-0.479,0.217-0.993,0.326-1.542,0.326c-0.55,0-1.064-0.109-1.542-0.326
			c-0.479-0.217-0.896-0.527-1.252-0.93c-0.357-0.403-0.641-0.888-0.855-1.457c-0.214-0.568-0.321-1.194-0.321-1.876v-0.062
			c0-0.682,0.107-1.307,0.321-1.876c0.214-0.568,0.499-1.054,0.855-1.457c0.356-0.403,0.774-0.713,1.252-0.93
			c0.478-0.217,0.993-0.326,1.542-0.326c0.55,0,1.064,0.109,1.542,0.326c0.478,0.217,0.901,0.527,1.268,0.93
			c0.367,0.403,0.657,0.889,0.87,1.457c0.214,0.569,0.321,1.194,0.321,1.876V14.356z M91.66,22.634h4.643V6.015H91.66V22.634z
			 M91.538,4.186h4.887V0h-4.887V4.186z M110.643,18.464c-0.58,0.321-1.258,0.481-2.031,0.481c-0.631,0-1.202-0.119-1.71-0.357
			c-0.509-0.237-0.947-0.563-1.313-0.977c-0.367-0.413-0.647-0.899-0.84-1.457c-0.194-0.558-0.29-1.157-0.29-1.798v-0.062
			c0-0.62,0.096-1.204,0.29-1.752c0.193-0.547,0.468-1.028,0.825-1.442c0.356-0.413,0.774-0.739,1.252-0.977
			c0.478-0.237,1.013-0.357,1.604-0.357c0.835,0,1.532,0.166,2.092,0.496c0.56,0.331,1.104,0.775,1.634,1.333l2.841-3.101
			c-0.774-0.868-1.67-1.55-2.688-2.046c-1.018-0.496-2.301-0.744-3.848-0.744c-1.263,0-2.418,0.228-3.467,0.682
			c-1.049,0.455-1.95,1.075-2.703,1.86c-0.754,0.786-1.344,1.705-1.772,2.76s-0.641,2.17-0.641,3.349v0.062
			c0,1.178,0.214,2.29,0.641,3.333c0.428,1.044,1.018,1.953,1.772,2.729c0.753,0.775,1.654,1.39,2.703,1.845
			c1.049,0.454,2.184,0.682,3.406,0.682c1.629,0,2.952-0.284,3.971-0.853c1.018-0.568,1.924-1.297,2.718-2.186l-2.718-2.791
			C111.798,17.715,111.223,18.144,110.643,18.464z M117.927,22.634h4.917v-4.961h-4.917V22.634z M126.938,4.186h4.887V0h-4.887
			V4.186z M127.06,22.634h4.643V6.015h-4.643V22.634z M152.319,10.929c-0.448-1.044-1.064-1.953-1.848-2.729
			c-0.784-0.775-1.716-1.385-2.795-1.829c-1.08-0.444-2.25-0.667-3.513-0.667c-1.283,0-2.464,0.228-3.543,0.682
			c-1.08,0.455-2.016,1.075-2.81,1.86c-0.794,0.786-1.416,1.7-1.863,2.744c-0.448,1.044-0.672,2.166-0.672,3.364v0.062
			c0,1.199,0.224,2.321,0.672,3.364c0.448,1.044,1.064,1.953,1.848,2.728c0.784,0.775,1.715,1.385,2.795,1.829
			c1.079,0.444,2.25,0.667,3.513,0.667c1.283,0,2.464-0.228,3.543-0.682c1.079-0.454,2.016-1.075,2.81-1.86
			c0.794-0.785,1.415-1.7,1.863-2.744c0.448-1.044,0.672-2.165,0.672-3.364v-0.062C152.991,13.095,152.767,11.973,152.319,10.929z
			 M148.409,14.418c0,0.62-0.097,1.204-0.29,1.752c-0.194,0.548-0.473,1.029-0.84,1.442c-0.367,0.414-0.809,0.739-1.329,0.977
			c-0.519,0.238-1.115,0.357-1.787,0.357c-0.652,0-1.237-0.124-1.756-0.372s-0.973-0.584-1.359-1.008
			c-0.387-0.423-0.682-0.909-0.886-1.457c-0.204-0.547-0.305-1.132-0.305-1.752v-0.062c0-0.62,0.096-1.204,0.29-1.752
			c0.193-0.547,0.473-1.028,0.84-1.442c0.367-0.413,0.809-0.739,1.329-0.977c0.519-0.237,1.115-0.357,1.787-0.357
			c0.631,0,1.211,0.124,1.741,0.372c0.529,0.248,0.987,0.584,1.374,1.008c0.387,0.424,0.682,0.91,0.886,1.457
			c0.203,0.548,0.305,1.132,0.305,1.752V14.418z"/>
	</g>
</g>
</svg>
