<?xml version="1.0" encoding="utf-8"?>
<!-- Generator: Adobe Illustrator 17.0.0, SVG Export Plug-In . SVG Version: 6.00 Build 0)  -->
<!DOCTYPE svg PUBLIC "-//W3C//DTD SVG 1.1//EN" "http://www.w3.org/Graphics/SVG/1.1/DTD/svg11.dtd">
<svg version="1.1" id="Layer_1" xmlns="http://www.w3.org/2000/svg" xmlns:xlink="http://www.w3.org/1999/xlink" x="0px" y="0px"
	 width="2048px" height="2048px" viewBox="0 0 2048 2048" enable-background="new 0 0 2048 2048" xml:space="preserve">
<path fill="#FFFFFF" stroke="#053950" stroke-width="33" stroke-miterlimit="10" d="M1860.902,1740.123
	c0,17.877-14.492,32.37-32.37,32.37H210.048c-17.877,0-32.37-14.492-32.37-32.37V399.093c0-17.877,14.492-32.37,32.37-32.37
	h1618.484c17.877,0,32.37,14.492,32.37,32.37V1740.123z"/>
<path fill="#E2EBF2" d="M897.326,797.091c0,6.001-5.318,10.669-11.378,10.669H773.543c-6.061,0-11.476-4.668-11.476-10.669V685.78
	c0-6.002,5.415-10.966,11.476-10.966h112.405c6.06,0,11.378,4.964,11.378,10.966V797.091z"/>
<path fill="#E2EBF2" d="M1097.325,797.091c0,6.001-5.053,10.669-11.113,10.669H973.807c-6.06,0-10.584-4.668-10.584-10.669V685.78
	c0-6.002,4.524-10.966,10.584-10.966h112.405c6.06,0,11.113,4.964,11.113,10.966V797.091z"/>
<path fill="#E2EBF2" d="M1298.479,797.091c0,6.001-4.677,10.669-10.737,10.669h-112.405c-6.06,0-10.959-4.668-10.959-10.669V685.78
	c0-6.002,4.9-10.966,10.959-10.966h112.405c6.06,0,10.737,4.964,10.737,10.966V797.091z"/>
<path fill="#E2EBF2" d="M1498.478,797.091c0,6.001-4.412,10.669-10.473,10.669H1375.6c-6.06,0-11.225-4.668-11.225-10.669V685.78
	c0-6.002,5.165-10.966,11.225-10.966h112.405c6.06,0,10.473,4.964,10.473,10.966V797.091z"/>
<path fill="#E2EBF2" d="M1699.632,797.091c0,6.001-5.304,10.669-11.364,10.669h-112.405c-6.06,0-11.489-4.668-11.489-10.669V685.78
	c0-6.002,5.429-10.966,11.489-10.966h112.405c6.06,0,11.364,4.964,11.364,10.966V797.091z"/>
<path fill="#E2EBF2" d="M493.861,996.66c0,6.002-4.913,11.099-10.974,11.099H370.482c-6.061,0-10.724-5.097-10.724-11.099V885.348
	c0-6.001,4.662-10.536,10.724-10.536h112.405c6.061,0,10.974,4.535,10.974,10.536V996.66z"/>
<path fill="#E2EBF2" d="M696.172,996.66c0,6.002-4.425,11.099-10.487,11.099H573.28c-6.061,0-11.211-5.097-11.211-11.099V885.348
	c0-6.001,5.15-10.536,11.211-10.536h112.405c6.061,0,10.487,4.535,10.487,10.536V996.66z"/>
<path fill="#E2EBF2" d="M897.326,996.66c0,6.002-5.318,11.099-11.378,11.099H773.543c-6.061,0-11.476-5.097-11.476-11.099V885.348
	c0-6.001,5.415-10.536,11.476-10.536h112.405c6.06,0,11.378,4.535,11.378,10.536V996.66z"/>
<path fill="#E2EBF2" d="M1097.325,996.66c0,6.002-5.053,11.099-11.113,11.099H973.807c-6.06,0-10.584-5.097-10.584-11.099V885.348
	c0-6.001,4.524-10.536,10.584-10.536h112.405c6.06,0,11.113,4.535,11.113,10.536V996.66z"/>
<path fill="#E2EBF2" d="M1298.479,996.66c0,6.002-4.677,11.099-10.737,11.099h-112.405c-6.06,0-10.959-5.097-10.959-11.099V885.348
	c0-6.001,4.9-10.536,10.959-10.536h112.405c6.06,0,10.737,4.535,10.737,10.536V996.66z"/>
<path fill="#E2EBF2" d="M1498.478,996.66c0,6.002-4.412,11.099-10.473,11.099H1375.6c-6.06,0-11.225-5.097-11.225-11.099V885.348
	c0-6.001,5.165-10.536,11.225-10.536h112.405c6.06,0,10.473,4.535,10.473,10.536V996.66z"/>
<path fill="#E2EBF2" d="M1699.632,996.66c0,6.002-5.304,11.099-11.364,11.099h-112.405c-6.06,0-11.489-5.097-11.489-11.099V885.348
	c0-6.001,5.429-10.536,11.489-10.536h112.405c6.06,0,11.364,4.535,11.364,10.536V996.66z"/>
<path fill="#E2EBF2" d="M493.861,1194.974c0,6.001-4.913,10.472-10.974,10.472H370.482c-6.061,0-10.724-4.469-10.724-10.472
	v-111.311c0-6.001,4.662-11.164,10.724-11.164h112.405c6.061,0,10.974,5.163,10.974,11.164V1194.974z"/>
<path fill="#E2EBF2" d="M696.172,1194.974c0,6.001-4.425,10.472-10.487,10.472H573.28c-6.061,0-11.211-4.469-11.211-10.472v-111.311
	c0-6.001,5.15-11.164,11.211-11.164h112.405c6.061,0,10.487,5.163,10.487,11.164V1194.974z"/>
<path fill="#E2EBF2" d="M897.326,1194.974c0,6.001-5.318,10.472-11.378,10.472H773.543c-6.061,0-11.476-4.469-11.476-10.472
	v-111.311c0-6.001,5.415-11.164,11.476-11.164h112.405c6.06,0,11.378,5.163,11.378,11.164V1194.974z"/>
<path fill="#E2EBF2" d="M1097.325,1194.974c0,6.001-5.053,10.472-11.113,10.472H973.807c-6.06,0-10.584-4.469-10.584-10.472
	v-111.311c0-6.001,4.524-11.164,10.584-11.164h112.405c6.06,0,11.113,5.163,11.113,11.164V1194.974z"/>
<path fill="#E2EBF2" d="M1298.479,1194.974c0,6.001-4.677,10.472-10.737,10.472h-112.405c-6.06,0-10.959-4.469-10.959-10.472
	v-111.311c0-6.001,4.9-11.164,10.959-11.164h112.405c6.06,0,10.737,5.163,10.737,11.164V1194.974z"/>
<path fill="#E2EBF2" d="M1498.478,1194.974c0,6.001-4.412,10.472-10.473,10.472H1375.6c-6.06,0-11.225-4.469-11.225-10.472v-111.311
	c0-6.001,5.165-11.164,11.225-11.164h112.405c6.06,0,10.473,5.163,10.473,11.164V1194.974z"/>
<path fill="#E2EBF2" d="M1699.632,1194.974c0,6.001-5.304,10.472-11.364,10.472h-112.405c-6.06,0-11.489-4.469-11.489-10.472
	v-111.311c0-6.001,5.429-11.164,11.489-11.164h112.405c6.06,0,11.364,5.163,11.364,11.164V1194.974z"/>
<path fill="#E2EBF2" d="M493.861,1393.288c0,6.001-4.913,11-10.974,11H370.482c-6.061,0-10.724-4.998-10.724-11v-111.311
	c0-6,4.662-10.636,10.724-10.636h112.405c6.061,0,10.974,4.636,10.974,10.636V1393.288z"/>
<path fill="#E2EBF2" d="M696.172,1393.288c0,6.001-4.425,11-10.487,11H573.28c-6.061,0-11.211-4.998-11.211-11v-111.311
	c0-6,5.15-10.636,11.211-10.636h112.405c6.061,0,10.487,4.636,10.487,10.636V1393.288z"/>
<path fill="#E2EBF2" d="M897.326,1393.288c0,6.001-5.318,11-11.378,11H773.543c-6.061,0-11.476-4.998-11.476-11v-111.311
	c0-6,5.415-10.636,11.476-10.636h112.405c6.06,0,11.378,4.636,11.378,10.636V1393.288z"/>
<path fill="#E2EBF2" d="M1097.325,1393.288c0,6.001-5.053,11-11.113,11H973.807c-6.06,0-10.584-4.998-10.584-11v-111.311
	c0-6,4.524-10.636,10.584-10.636h112.405c6.06,0,11.113,4.636,11.113,10.636V1393.288z"/>
<path fill="#E2EBF2" d="M1298.479,1393.288c0,6.001-4.677,11-10.737,11h-112.405c-6.06,0-10.959-4.998-10.959-11v-111.311
	c0-6,4.9-10.636,10.959-10.636h112.405c6.06,0,10.737,4.636,10.737,10.636V1393.288z"/>
<path fill="#E2EBF2" d="M1498.478,1393.288c0,6.001-4.412,11-10.473,11H1375.6c-6.06,0-11.225-4.998-11.225-11v-111.311
	c0-6,5.165-10.636,11.225-10.636h112.405c6.06,0,10.473,4.636,10.473,10.636V1393.288z"/>
<path fill="#E2EBF2" d="M1699.632,1393.288c0,6.001-5.304,11-11.364,11h-112.405c-6.06,0-11.489-4.998-11.489-11v-111.311
	c0-6,5.429-10.636,11.489-10.636h112.405c6.06,0,11.364,4.636,11.364,10.636V1393.288z"/>
<path fill="#E2EBF2" d="M493.861,1591.602c0,6.001-4.913,10.372-10.974,10.372H370.482c-6.061,0-10.724-4.37-10.724-10.372V1480.29
	c0-6,4.662-11.264,10.724-11.264h112.405c6.061,0,10.974,5.264,10.974,11.264V1591.602z"/>
<path fill="#E2EBF2" d="M696.172,1591.602c0,6.001-4.425,10.372-10.487,10.372H573.28c-6.061,0-11.211-4.37-11.211-10.372V1480.29
	c0-6,5.15-11.264,11.211-11.264h112.405c6.061,0,10.487,5.264,10.487,11.264V1591.602z"/>
<path fill="#E2EBF2" d="M897.326,1591.602c0,6.001-5.318,10.372-11.378,10.372H773.543c-6.061,0-11.476-4.37-11.476-10.372V1480.29
	c0-6,5.415-11.264,11.476-11.264h112.405c6.06,0,11.378,5.264,11.378,11.264V1591.602z"/>
<path fill="#E2EBF2" d="M1097.325,1591.602c0,6.001-5.053,10.372-11.113,10.372H973.807c-6.06,0-10.584-4.37-10.584-10.372V1480.29
	c0-6,4.524-11.264,10.584-11.264h112.405c6.06,0,11.113,5.264,11.113,11.264V1591.602z"/>
<path fill="none" stroke="#053950" stroke-width="15" stroke-miterlimit="10" d="M1756.857,1634.707
	c0,12.004-5.334,25.648-17.457,25.648H302.871c-12.121,0-25.771-13.645-25.771-25.648V612.552c0-12.003,13.651-18.084,25.771-18.084
	h1436.53c12.121,0,17.457,6.081,17.457,18.084V1634.707z"/>
<path fill="#F2F2F2" d="M759.755,463.333c0-4.459-4.379-7.015-11.882-7.015H507.607c-7.504,0-14.902,2.556-14.902,7.015v13.978
	c0,4.458,7.398,9.064,14.902,9.064h240.266c7.504,0,11.882-4.606,11.882-9.064L759.755,463.333L759.755,463.333z"/>
<path fill="#F2F2F2" d="M1563.217,463.333c0-4.459-4.254-7.015-11.757-7.015h-240.266c-7.503,0-15.026,2.556-15.026,7.015v13.978
	c0,4.458,7.524,9.064,15.026,9.064h240.266c7.503,0,11.757-4.606,11.757-9.064V463.333z"/>
<path fill="none" stroke="#053950" stroke-width="15" stroke-miterlimit="10" d="M756.865,473.735c0-7.431-1.647-9.903-9.151-9.903
	H507.448c-7.504,0-17.633,2.473-17.633,9.903v23.297c0,7.43,10.129,17.666,17.633,17.666h240.266c7.504,0,9.151-10.236,9.151-17.666
	L756.865,473.735L756.865,473.735z"/>
<path fill="none" stroke="#053950" stroke-width="15" stroke-miterlimit="10" d="M1560.327,473.735c0-7.431-1.521-9.903-9.025-9.903
	h-240.266c-7.503,0-17.758,2.473-17.758,9.903v23.297c0,7.43,10.255,17.666,17.758,17.666h240.266
	c7.503,0,9.025-10.236,9.025-17.666V473.735z"/>
<path fill="none" stroke="#053950" stroke-width="20" stroke-linecap="round" stroke-miterlimit="10" d="M852.648,1456.917
	c0,0-110.982,0-110.982,73.988c0,73.988,110.982,110.982,166.473,55.491c55.491-55.491-147.976-147.976-147.976-147.976"/>
<path fill="none" stroke="#053950" stroke-width="20" stroke-linecap="round" stroke-miterlimit="10" d="M418.273,915.963
	c0,0,192.475-107.509,390.152,0"/>
<path fill="none" stroke="#053950" stroke-width="20" stroke-linecap="round" stroke-miterlimit="10" d="M756.865,941.285
	c0,0,29.017-16.652,61.964-18.386s-30.981-64.159-30.981-64.159"/>
<path fill="none" stroke="#053950" stroke-width="20" stroke-linecap="round" stroke-miterlimit="10" d="M1159.507,850.071
	c0,0,110.817,100.36,143.843,157.688"/>
<path fill="none" stroke="#053950" stroke-width="20" stroke-linecap="round" stroke-miterlimit="10" d="M1183.783,980.121
	c0,0,58.796-71.286,119.567-111.939"/>
<path fill="none" stroke="#053950" stroke-width="20" stroke-linecap="round" stroke-linejoin="round" stroke-miterlimit="10" d="
	M555.831,1095.672c0,0,127.391,7.729,151.11,15.192c23.72,7.462-144.872,49.038-144.872,49.038l137.676,24.785"/>
<g>
	<path fill="#FFFFFF" stroke="#053950" stroke-width="25" stroke-linejoin="round" stroke-miterlimit="10" d="M1978.459,872.708
		l-639.51,639.51c-11.547-28.421-27.085-54.975-49.326-77.216c-22.057-22.057-49.07-38.062-76.59-48.972l639.374-639.374
		L1978.459,872.708z"/>
	
		<rect x="1543.52" y="643.024" transform="matrix(-0.7071 -0.7071 0.7071 -0.7071 1906.9302 2958.009)" fill="#F2F2F2" width="45.138" height="882.085"/>
	
		<rect x="1611.357" y="726.643" transform="matrix(-0.7071 -0.7071 0.7071 -0.7071 1963.6068 3148.7246)" fill="#F2F2F2" width="45.138" height="882.085"/>
	
		<line fill="none" stroke="#053950" stroke-width="15" stroke-linejoin="round" stroke-miterlimit="10" x1="1313.994" y1="1455.7" x2="1940.413" y2="829.282"/>
	
		<line fill="none" stroke="#053950" stroke-width="15" stroke-linejoin="round" stroke-miterlimit="10" x1="1270.183" y1="1411.889" x2="1896.602" y2="785.471"/>
	
		<rect x="1857.429" y="734.53" transform="matrix(-0.7071 -0.7071 0.7071 -0.7071 2772.4685 2705.5002)" fill="#FFFFFF" stroke="#053950" stroke-width="25" stroke-linejoin="round" stroke-miterlimit="10" width="178.265" height="88.045"/>
	<path fill="#E5E5E5" stroke="#053950" stroke-width="25" stroke-linejoin="round" stroke-miterlimit="10" d="M1914.664,684.398
		l25.942-25.942c19.497-19.497,49.643-16.839,69.14,2.658l54.917,54.917c19.497,19.497,21.493,48.98,1.995,68.477l-25.942,25.942
		L1914.664,684.398z"/>
	
		<circle fill="none" stroke="#053950" stroke-width="12.7587" stroke-linejoin="round" stroke-miterlimit="10" cx="1968.58" cy="802.635" r="11.095"/>
	
		<circle fill="none" stroke="#053950" stroke-width="12.7587" stroke-linejoin="round" stroke-miterlimit="10" cx="1921.51" cy="755.564" r="11.095"/>
	<path fill="#FFFFFF" stroke="#053950" stroke-width="25" stroke-linejoin="round" stroke-miterlimit="10" d="M1338.949,1512.219
		l-157.148,72.979c-4.186-9.234-9.983-17.802-17.559-25.377c-7.519-7.519-16.05-13.329-25.21-17.508l74.472-156.657
		c27.68,11.07,54.126,26.506,76.183,48.563C1311.928,1456.46,1328.171,1484.566,1338.949,1512.219z"/>
	<path fill="#E5E5E5" stroke="#053950" stroke-width="25.5174" stroke-linejoin="round" stroke-miterlimit="10" d="
		M1181.949,1585.346l-80.64,37.555l37.76-80.553c9.16,4.179,17.728,10.026,25.247,17.546
		C1171.892,1567.47,1177.763,1576.112,1181.949,1585.346z"/>
</g>
</svg>
