<?xml version="1.0" encoding="utf-8"?>
<!-- Generator: Adobe Illustrator 17.0.0, SVG Export Plug-In . SVG Version: 6.00 Build 0)  -->
<!DOCTYPE svg PUBLIC "-//W3C//DTD SVG 1.1//EN" "http://www.w3.org/Graphics/SVG/1.1/DTD/svg11.dtd">
<svg version="1.1" id="Layer_1" xmlns="http://www.w3.org/2000/svg" xmlns:xlink="http://www.w3.org/1999/xlink" x="0px" y="0px"
	 width="2048px" height="2048px" viewBox="0 0 2048 2048" enable-background="new 0 0 2048 2048" xml:space="preserve">
<path fill="none" stroke="#EFEFEF" stroke-width="23" stroke-miterlimit="10" d="M1947.5,1617.669
	c0,21.764-17.643,39.406-39.406,39.406H1731.52c-21.763,0-39.406-17.643-39.406-39.406l0,0c0-21.764,17.643-39.406,39.406-39.406
	h176.574C1929.857,1578.263,1947.5,1595.905,1947.5,1617.669L1947.5,1617.669z"/>
<path fill="none" stroke="#053950" stroke-width="23.9842" stroke-miterlimit="10" d="M265.175,915.552
	c0,0,1.472-3.272-23.063-3.272s3.271-96.776-109.592-96.776c-75.241,0-58.108,95.535-9.814,163.246
	c48.294,67.71,142.469,108.548,142.469,108.548"/>
<path fill="#FFFFFF" stroke="#053950" stroke-width="23" stroke-miterlimit="10" d="M1692.114,1619.739
	c0,8.946,7.252,16.198,16.198,16.198h222.991c8.946,0,16.198-7.252,16.198-16.198V339.027c0-8.946-7.252-16.198-16.198-16.198
	h-222.991c-8.946,0-16.198,7.252-16.198,16.198V1619.739z"/>
<line fill="none" stroke="#E2EBF2" stroke-width="11.528" stroke-miterlimit="10" x1="1703.6" y1="588.072" x2="1739.6" y2="588.072"/>
<line fill="none" stroke="#E2EBF2" stroke-width="11.528" stroke-miterlimit="10" x1="1703.6" y1="631.509" x2="1739.6" y2="631.509"/>
<line fill="none" stroke="#E2EBF2" stroke-width="11.528" stroke-miterlimit="10" x1="1703.6" y1="674.945" x2="1739.6" y2="674.945"/>
<circle fill="#EFEFEF" stroke="#053950" stroke-width="15" stroke-miterlimit="10" cx="1819.807" cy="419.477" r="41.035"/>
<line fill="none" stroke="#E2EBF2" stroke-width="11.528" stroke-miterlimit="10" x1="1703.6" y1="761.819" x2="1739.6" y2="761.819"/>
<line fill="none" stroke="#E2EBF2" stroke-width="11.528" stroke-miterlimit="10" x1="1703.6" y1="805.256" x2="1739.6" y2="805.256"/>
<line fill="none" stroke="#E2EBF2" stroke-width="11.528" stroke-miterlimit="10" x1="1703.6" y1="848.692" x2="1739.6" y2="848.692"/>
<line fill="none" stroke="#053950" stroke-width="15" stroke-miterlimit="10" x1="1692.114" y1="543.83" x2="1773.903" y2="543.83"/>
<line fill="none" stroke="#E2EBF2" stroke-width="11.528" stroke-miterlimit="10" x1="1703.6" y1="935.566" x2="1739.6" y2="935.566"/>
<line fill="none" stroke="#E2EBF2" stroke-width="11.528" stroke-miterlimit="10" x1="1703.6" y1="979.002" x2="1739.6" y2="979.002"/>
<line fill="none" stroke="#E2EBF2" stroke-width="11.528" stroke-miterlimit="10" x1="1703.6" y1="1022.439" x2="1739.6" y2="1022.439"/>
<line fill="none" stroke="#053950" stroke-width="15" stroke-miterlimit="10" x1="1692.114" y1="720.796" x2="1773.903" y2="720.796"/>
<line fill="none" stroke="#E2EBF2" stroke-width="11.528" stroke-miterlimit="10" x1="1703.6" y1="1109.313" x2="1739.6" y2="1109.313"/>
<line fill="none" stroke="#E2EBF2" stroke-width="11.528" stroke-miterlimit="10" x1="1703.6" y1="1152.749" x2="1739.6" y2="1152.749"/>
<line fill="none" stroke="#053950" stroke-width="15" stroke-miterlimit="10" x1="1692.114" y1="897.762" x2="1773.903" y2="897.762"/>
<line fill="none" stroke="#E2EBF2" stroke-width="11.528" stroke-miterlimit="10" x1="1703.6" y1="1196.186" x2="1739.6" y2="1196.186"/>
<line fill="none" stroke="#053950" stroke-width="15" stroke-miterlimit="10" x1="1692.114" y1="1074.728" x2="1773.903" y2="1074.728"/>
<g>
	<path fill="#EFEFEF" stroke="#053950" stroke-width="23.9842" stroke-miterlimit="10" d="M351.283,1517.919
		c0,0,58.698-64.349,85.379-149.061c26.681-84.712,13.341-221.152,13.341-221.152h51.82v370.213H351.283z"/>
	<path fill="none" stroke="#053950" stroke-width="23.9842" stroke-miterlimit="10" d="M553.643,1147.706
		c0,0-13.341,136.44,13.341,221.152c26.681,84.713,85.38,149.061,85.38,149.061"/>
</g>
<line fill="none" stroke="#E2EBF2" stroke-width="11.528" stroke-miterlimit="10" x1="1703.6" y1="1283.06" x2="1739.6" y2="1283.06"/>
<line fill="none" stroke="#E2EBF2" stroke-width="11.528" stroke-miterlimit="10" x1="1703.6" y1="1326.496" x2="1739.6" y2="1326.496"/>
<rect x="233.22" y="1617.669" fill="none" stroke="#EFEFEF" stroke-width="23.9842" stroke-miterlimit="10" width="1096.084" height="39.406"/>
<line fill="none" stroke="#E2EBF2" stroke-width="11.528" stroke-miterlimit="10" x1="1703.6" y1="1413.37" x2="1739.6" y2="1413.37"/>
<line fill="none" stroke="#E2EBF2" stroke-width="11.528" stroke-miterlimit="10" x1="1703.6" y1="1456.806" x2="1739.6" y2="1456.806"/>
<line fill="none" stroke="#E2EBF2" stroke-width="11.528" stroke-miterlimit="10" x1="1703.6" y1="1500.243" x2="1739.6" y2="1500.243"/>
<line fill="none" stroke="#053950" stroke-width="15" stroke-miterlimit="10" x1="1692.114" y1="1251.694" x2="1773.903" y2="1251.694"/>
<line fill="none" stroke="#053950" stroke-width="15" stroke-miterlimit="10" x1="1692.114" y1="1384.418" x2="1773.903" y2="1384.418"/>
<line fill="none" stroke="#053950" stroke-width="15" stroke-miterlimit="10" x1="1692.114" y1="1561.385" x2="1773.903" y2="1561.385"/>
<path fill="#FFFFFF" stroke="#053950" stroke-width="23.9842" stroke-miterlimit="10" d="M770.426,1638.097v-60.408
	c0-33.009-26.76-59.769-59.768-59.769h-417.67c-33.009,0-59.768,26.759-59.768,59.769v60.408H770.426z"/>
<path fill="#FFFFFF" stroke="#053950" stroke-width="23.9842" stroke-miterlimit="10" d="M233.22,808.378v279.559
	c0,33.008,26.759,59.769,59.768,59.769h417.67c33.008,0,59.768-26.76,59.768-59.769V808.378H233.22z"/>
<line fill="none" stroke="#053950" stroke-width="18" stroke-miterlimit="10" x1="233.22" y1="856.333" x2="770.426" y2="856.333"/>
<path fill="none" stroke="#053950" stroke-width="26" stroke-miterlimit="10" d="M1293.111,622.183c0,0-2.047-4.552,32.088-4.552
	c34.138,0-4.551-134.647,152.478-134.647c104.686,0,80.849,132.922,13.656,227.13s-198.221,151.027-198.221,151.027"/>
<path fill="none" stroke="#053950" stroke-width="26" stroke-miterlimit="10" d="M624.454,622.183c0,0,2.047-4.552-32.089-4.552
	s4.552-134.647-152.478-134.647c-104.686,0-80.849,132.922-13.655,227.13c67.193,94.208,198.221,151.027,198.221,151.027"/>
<path fill="#FFFFFF" stroke="#053950" stroke-width="26" stroke-miterlimit="10" d="M1329.304,1637.017v-84.05
	c0-45.925-37.231-83.158-83.158-83.158H665.03c-45.927,0-83.158,37.232-83.158,83.158v84.05H1329.304z"/>
<path fill="#FFFFFF" stroke="#053950" stroke-width="26" stroke-miterlimit="10" d="M581.873,482.601v388.961
	c0,45.926,37.23,83.158,83.158,83.158h581.117c45.926,0,83.158-37.231,83.158-83.158V482.601H581.873z"/>
<line fill="none" stroke="#053950" stroke-width="18" stroke-miterlimit="10" x1="581.873" y1="549.322" x2="1329.304" y2="549.322"/>
<g>
	<path fill="#EFEFEF" stroke="#053950" stroke-width="26" stroke-miterlimit="10" d="M746.136,1469.809
		c0,0,81.669-89.531,118.791-207.394c37.123-117.863,18.563-307.697,18.563-307.697h72.099v515.09L746.136,1469.809
		L746.136,1469.809z"/>
	<path fill="none" stroke="#053950" stroke-width="26" stroke-miterlimit="10" d="M1027.689,954.719
		c0,0-18.562,189.833,18.561,307.697c37.123,117.862,118.792,207.394,118.792,207.394"/>
</g>
<polygon fill="#E2EBF2" stroke="#053950" stroke-width="15" stroke-linecap="round" stroke-linejoin="round" stroke-miterlimit="10" points="
	955.588,634.403 979.354,707.546 1056.261,707.546 994.043,752.751 1017.808,825.894 955.588,780.689 893.37,825.894 
	917.135,752.751 854.916,707.546 931.823,707.546 "/>
</svg>
