<?xml version="1.0" encoding="utf-8"?>
<!-- Generator: Adobe Illustrator 17.0.0, SVG Export Plug-In . SVG Version: 6.00 Build 0)  -->
<!DOCTYPE svg PUBLIC "-//W3C//DTD SVG 1.1//EN" "http://www.w3.org/Graphics/SVG/1.1/DTD/svg11.dtd">
<svg version="1.1" id="Layer_1" xmlns="http://www.w3.org/2000/svg" xmlns:xlink="http://www.w3.org/1999/xlink" x="0px" y="0px"
	 width="2048px" height="2048px" viewBox="0 0 2048 2048" enable-background="new 0 0 2048 2048" xml:space="preserve">
<path fill="none" stroke="#EFEFEF" stroke-width="23" stroke-miterlimit="10" d="M1907.5,1620.583
	c0,20.154-16.338,36.492-36.492,36.492h-163.516c-20.154,0-36.492-16.338-36.492-36.492l0,0c0-20.154,16.338-36.492,36.492-36.492
	h163.516C1891.162,1584.091,1907.5,1600.429,1907.5,1620.583L1907.5,1620.583z"/>
<path fill="none" stroke="#43BBEF" stroke-width="23.9842" stroke-miterlimit="10" d="M349.587,970.389c0,0,1.363-3.03-21.357-3.03
	s3.029-89.619-101.487-89.619c-69.677,0-53.811,88.47-9.088,151.174c44.723,62.703,131.933,100.521,131.933,100.521"/>
<path fill="#FFFFFF" stroke="#43BBEF" stroke-width="23" stroke-miterlimit="10" d="M1671,1622.5c0,8.284,6.716,15,15,15h206.5
	c8.284,0,15-6.716,15-15v-1186c0-8.284-6.716-15-15-15H1686c-8.284,0-15,6.716-15,15V1622.5z"/>
<circle fill="#EFEFEF" stroke="#43BBEF" stroke-width="15" stroke-miterlimit="10" cx="1789.25" cy="511" r="38"/>
<line fill="none" stroke="#43BBEF" stroke-width="15" stroke-miterlimit="10" x1="1671" y1="626.157" x2="1746.741" y2="626.157"/>
<line fill="none" stroke="#43BBEF" stroke-width="11.528" stroke-miterlimit="10" x1="1671" y1="667.127" x2="1715.736" y2="667.127"/>
<line fill="none" stroke="#43BBEF" stroke-width="11.528" stroke-miterlimit="10" x1="1671" y1="708.097" x2="1715.736" y2="708.097"/>
<line fill="none" stroke="#43BBEF" stroke-width="11.528" stroke-miterlimit="10" x1="1671" y1="749.066" x2="1715.736" y2="749.066"/>
<line fill="none" stroke="#43BBEF" stroke-width="15" stroke-miterlimit="10" x1="1671" y1="790.036" x2="1746.741" y2="790.036"/>
<line fill="none" stroke="#43BBEF" stroke-width="11.528" stroke-miterlimit="10" x1="1671" y1="831.006" x2="1715.736" y2="831.006"/>
<line fill="none" stroke="#43BBEF" stroke-width="11.528" stroke-miterlimit="10" x1="1671" y1="871.976" x2="1715.736" y2="871.976"/>
<line fill="none" stroke="#43BBEF" stroke-width="11.528" stroke-miterlimit="10" x1="1671" y1="912.945" x2="1715.736" y2="912.945"/>
<line fill="none" stroke="#43BBEF" stroke-width="15" stroke-miterlimit="10" x1="1671" y1="953.915" x2="1746.741" y2="953.915"/>
<line fill="none" stroke="#43BBEF" stroke-width="11.528" stroke-miterlimit="10" x1="1671" y1="994.885" x2="1715.736" y2="994.885"/>
<line fill="none" stroke="#43BBEF" stroke-width="11.528" stroke-miterlimit="10" x1="1671" y1="1035.854" x2="1715.736" y2="1035.854"/>
<line fill="none" stroke="#43BBEF" stroke-width="11.528" stroke-miterlimit="10" x1="1671" y1="1076.824" x2="1715.736" y2="1076.824"/>
<line fill="none" stroke="#43BBEF" stroke-width="15" stroke-miterlimit="10" x1="1671" y1="1117.794" x2="1746.741" y2="1117.794"/>
<line fill="none" stroke="#43BBEF" stroke-width="11.528" stroke-miterlimit="10" x1="1671" y1="1158.764" x2="1715.736" y2="1158.764"/>
<line fill="none" stroke="#43BBEF" stroke-width="11.528" stroke-miterlimit="10" x1="1671" y1="1199.733" x2="1715.736" y2="1199.733"/>
<g>
	<path fill="#EFEFEF" stroke="#43BBEF" stroke-width="23.9842" stroke-miterlimit="10" d="M429.327,1528.21
		c0,0,54.357-59.59,79.065-138.038c24.708-78.447,12.354-204.797,12.354-204.797h47.988v342.835H429.327z"/>
	<path fill="none" stroke="#43BBEF" stroke-width="23.9842" stroke-miterlimit="10" d="M616.722,1185.375
		c0,0-12.354,126.35,12.354,204.797c24.708,78.448,79.066,138.038,79.066,138.038"/>
</g>
<line fill="none" stroke="#43BBEF" stroke-width="11.528" stroke-miterlimit="10" x1="1671" y1="1240.703" x2="1715.736" y2="1240.703"/>
<rect x="319.995" y="1620.583" fill="none" stroke="#EFEFEF" stroke-width="23.9842" stroke-miterlimit="10" width="1015.026" height="36.492"/>
<line fill="none" stroke="#43BBEF" stroke-width="15" stroke-miterlimit="10" x1="1671" y1="1281.673" x2="1746.741" y2="1281.673"/>
<line fill="none" stroke="#43BBEF" stroke-width="11.528" stroke-miterlimit="10" x1="1671" y1="1322.643" x2="1715.736" y2="1322.643"/>
<line fill="none" stroke="#43BBEF" stroke-width="11.528" stroke-miterlimit="10" x1="1671" y1="1363.612" x2="1715.736" y2="1363.612"/>
<line fill="none" stroke="#43BBEF" stroke-width="15" stroke-miterlimit="10" x1="1671" y1="1404.582" x2="1746.741" y2="1404.582"/>
<line fill="none" stroke="#43BBEF" stroke-width="11.528" stroke-miterlimit="10" x1="1671" y1="1445.552" x2="1715.736" y2="1445.552"/>
<line fill="none" stroke="#43BBEF" stroke-width="11.528" stroke-miterlimit="10" x1="1671" y1="1486.521" x2="1715.736" y2="1486.521"/>
<line fill="none" stroke="#43BBEF" stroke-width="11.528" stroke-miterlimit="10" x1="1671" y1="1527.491" x2="1715.736" y2="1527.491"/>
<line fill="none" stroke="#43BBEF" stroke-width="15" stroke-miterlimit="10" x1="1671" y1="1568.461" x2="1746.741" y2="1568.461"/>
<path fill="#FFFFFF" stroke="#43BBEF" stroke-width="23.9842" stroke-miterlimit="10" d="M817.473,1639.5v-55.941
	c0-30.568-24.781-55.349-55.348-55.349H375.343c-30.568,0-55.348,24.78-55.348,55.349v55.941H817.473z"/>
<path fill="#FFFFFF" stroke="#43BBEF" stroke-width="23.9842" stroke-miterlimit="10" d="M319.995,871.141v258.885
	c0,30.567,24.78,55.349,55.348,55.349h386.782c30.567,0,55.348-24.781,55.348-55.349V871.141H319.995z"/>
<line fill="none" stroke="#43BBEF" stroke-width="18" stroke-miterlimit="10" x1="319.995" y1="915.55" x2="817.473" y2="915.55"/>
<path fill="none" stroke="#43BBEF" stroke-width="26" stroke-miterlimit="10" d="M1301.505,698.716c0,0-1.896-4.215,29.715-4.215
	c31.613,0-4.214-124.69,141.202-124.69c96.944,0,74.87,123.092,12.646,210.333c-62.224,87.241-183.562,139.858-183.562,139.858"/>
<path fill="none" stroke="#43BBEF" stroke-width="26" stroke-miterlimit="10" d="M682.296,698.716c0,0,1.896-4.215-29.716-4.215
	c-31.612,0,4.215-124.69-141.202-124.69c-96.944,0-74.87,123.092-12.645,210.333c62.224,87.241,183.562,139.858,183.562,139.858"/>
<path fill="#FFFFFF" stroke="#43BBEF" stroke-width="26" stroke-miterlimit="10" d="M1335.021,1638.5v-77.834
	c0-42.529-34.478-77.008-77.008-77.008H719.872c-42.531,0-77.008,34.479-77.008,77.008v77.834H1335.021z"/>
<path fill="#FFFFFF" stroke="#43BBEF" stroke-width="26" stroke-miterlimit="10" d="M642.864,569.456v360.196
	c0,42.53,34.477,77.008,77.008,77.008h538.142c42.53,0,77.008-34.478,77.008-77.008V569.456H642.864z"/>
<line fill="#FFFFFF" stroke="#43BBEF" stroke-width="18" stroke-miterlimit="10" x1="642.864" y1="631.243" x2="1335.021" y2="631.243"/>
<g>
	<path fill="#EFEFEF" stroke="#43BBEF" stroke-width="26" stroke-miterlimit="10" d="M794.98,1483.658
		c0,0,75.629-82.91,110.006-192.057c34.378-109.147,17.19-284.942,17.19-284.942h66.767v476.998H794.98z"/>
	<path fill="none" stroke="#43BBEF" stroke-width="26" stroke-miterlimit="10" d="M1055.711,1006.66
		c0,0-17.189,175.794,17.188,284.942c34.378,109.146,110.007,192.057,110.007,192.057"/>
</g>
<polygon fill="#EFEFEF" stroke="#43BBEF" stroke-width="26" stroke-linecap="round" stroke-linejoin="round" stroke-miterlimit="10" points="
	988.942,710.032 1010.951,777.766 1082.17,777.766 1024.553,819.628 1046.561,887.362 988.942,845.5 931.325,887.362 
	953.333,819.628 895.715,777.766 966.935,777.766 "/>
</svg>
