<?xml version="1.0" encoding="utf-8"?>
<!-- Generator: Adobe Illustrator 17.0.0, SVG Export Plug-In . SVG Version: 6.00 Build 0)  -->
<!DOCTYPE svg PUBLIC "-//W3C//DTD SVG 1.1//EN" "http://www.w3.org/Graphics/SVG/1.1/DTD/svg11.dtd">
<svg version="1.1" id="Layer_1" xmlns="http://www.w3.org/2000/svg" xmlns:xlink="http://www.w3.org/1999/xlink" x="0px" y="0px"
	 width="2048px" height="2048px" viewBox="0 0 2048 2048" enable-background="new 0 0 2048 2048" xml:space="preserve">
<path fill="none" stroke="#EFEFEF" stroke-width="63.1818" stroke-linejoin="round" stroke-miterlimit="10" d="M1462.186,330.647
	c-217.987,0-430.012,261.519-430.012,261.519S820.147,330.647,602.162,330.647c-218.01,0-426.093,109.005-426.093,430.037
	c0,227.889,214.044,428.064,214.044,428.064l642.062,640.066l642.06-640.066c0,0,214.046-200.175,214.046-428.064
	C1888.281,439.652,1680.195,330.647,1462.186,330.647z"/>
<path fill="#FFFFFF" stroke="#053950" stroke-width="52.2065" stroke-linecap="round" stroke-linejoin="round" d="M1462.186,295.76
	c-217.987,0-430.012,261.518-430.012,261.518S820.147,295.76,602.162,295.76c-218.01,0-426.093,109.004-426.093,430.037
	c0,227.889,214.044,428.066,214.044,428.066l642.061,640.065l642.06-640.065c0,0,214.046-200.176,214.046-428.066
	C1888.281,404.763,1680.195,295.76,1462.186,295.76z"/>
<g>
	<polyline fill="none" stroke="#053950" stroke-width="31" stroke-linecap="round" stroke-linejoin="round" points="
		865.285,973.213 945.195,973.381 1025.12,813.119 1104.971,1132.447 1184.983,973.5 1349,973.5 	"/>
	
		<line fill="none" stroke="#053950" stroke-width="31" stroke-linecap="round" stroke-linejoin="round" x1="807" y1="973.5" x2="767" y2="973.5"/>
	
		<line fill="none" stroke="#053950" stroke-width="31" stroke-linecap="round" stroke-linejoin="round" x1="712" y1="973.5" x2="682" y2="973.5"/>
	
		<line fill="none" stroke="#053950" stroke-width="31" stroke-linecap="round" stroke-linejoin="round" x1="626" y1="973.5" x2="616" y2="973.5"/>
	
		<line fill="none" stroke="#053950" stroke-width="31" stroke-linecap="round" stroke-linejoin="round" x1="559.534" y1="973.5" x2="559.534" y2="973.5"/>
	
		<circle fill="none" stroke="#053950" stroke-width="31.2262" stroke-linecap="round" stroke-linejoin="round" cx="1396.421" cy="972.3" r="42.394"/>
</g>
</svg>
