<?xml version="1.0" encoding="utf-8"?>
<!-- Generator: Adobe Illustrator 17.0.0, SVG Export Plug-In . SVG Version: 6.00 Build 0)  -->
<!DOCTYPE svg PUBLIC "-//W3C//DTD SVG 1.1//EN" "http://www.w3.org/Graphics/SVG/1.1/DTD/svg11.dtd">
<svg version="1.1" id="Layer_1" xmlns="http://www.w3.org/2000/svg" xmlns:xlink="http://www.w3.org/1999/xlink" x="0px" y="0px"
	 width="2048px" height="2048px" viewBox="0 0 2048 2048" enable-background="new 0 0 2048 2048" xml:space="preserve">
<path fill="none" stroke="#EFEFEF" stroke-width="63.1818" stroke-linejoin="round" stroke-miterlimit="10" d="M1486.413,289.427
	c-230.268,0-454.239,276.253-454.239,276.253S808.202,289.427,577.935,289.427c-230.293,0-450.099,115.146-450.099,454.265
	c0,240.728,226.103,452.181,226.103,452.181L1032.174,1872l678.233-676.127c0,0,226.105-211.453,226.105-452.181
	C1936.513,404.573,1716.704,289.427,1486.413,289.427z"/>
<path fill="#FFFFFF" stroke="#43BBEF" stroke-width="52.2065" stroke-linecap="round" stroke-linejoin="round" d="M1486.413,252.574
	c-230.268,0-454.239,276.252-454.239,276.252S808.202,252.574,577.935,252.574c-230.293,0-450.099,115.145-450.099,454.265
	c0,240.728,226.103,452.183,226.103,452.183l678.234,676.126l678.233-676.126c0,0,226.105-211.454,226.105-452.183
	C1936.513,367.719,1716.704,252.574,1486.413,252.574z"/>
<g>
	<polyline fill="none" stroke="#43BBEF" stroke-width="31" stroke-linecap="round" stroke-linejoin="round" points="
		865.285,973.213 945.195,973.381 1025.12,813.119 1104.971,1132.447 1184.983,973.5 1349,973.5 	"/>
	
		<line fill="none" stroke="#43BBEF" stroke-width="31" stroke-linecap="round" stroke-linejoin="round" x1="807" y1="973.5" x2="767" y2="973.5"/>
	
		<line fill="none" stroke="#43BBEF" stroke-width="31" stroke-linecap="round" stroke-linejoin="round" x1="712" y1="973.5" x2="682" y2="973.5"/>
	
		<line fill="none" stroke="#43BBEF" stroke-width="31" stroke-linecap="round" stroke-linejoin="round" x1="626" y1="973.5" x2="616" y2="973.5"/>
	
		<line fill="none" stroke="#43BBEF" stroke-width="31" stroke-linecap="round" stroke-linejoin="round" x1="559.534" y1="973.5" x2="559.534" y2="973.5"/>
	
		<circle fill="none" stroke="#43BBEF" stroke-width="31.2262" stroke-linecap="round" stroke-linejoin="round" cx="1396.421" cy="972.3" r="42.394"/>
</g>
</svg>
