<?xml version="1.0" encoding="utf-8"?>
<!-- Generator: Adobe Illustrator 17.1.0, SVG Export Plug-In . SVG Version: 6.00 Build 0)  -->
<!DOCTYPE svg PUBLIC "-//W3C//DTD SVG 1.1//EN" "http://www.w3.org/Graphics/SVG/1.1/DTD/svg11.dtd">
<svg version="1.1" id="Check" xmlns="http://www.w3.org/2000/svg" xmlns:xlink="http://www.w3.org/1999/xlink" x="0px" y="0px"
	 viewBox="0 0 595.3 841.9" enable-background="new 0 0 595.3 841.9" xml:space="preserve">
<path fill="#FFFFFF" d="M519.7,213.3c-135.3,86.3-236.1,189.9-288.3,250.3c-6.1,7-16.5,8-23.8,2.3l-99.1-77.6
	c-6.4-5-15.3-4.9-21.6,0.2l-28.7,23.1c-8,6.4-8.7,18.4-1.5,25.7l181,184.1c8.5,8.7,23.1,6.1,28.2-5
	c43.8-96.3,148.7-256.2,275.2-375.4c5.3-5,6.9-12.8,4-19.6l-0.1-0.3C540.8,211.3,528.8,207.6,519.7,213.3z"/>
</svg>
