<?xml version="1.0" encoding="utf-8"?>
<!-- Generator: Adobe Illustrator 17.1.0, SVG Export Plug-In . SVG Version: 6.00 Build 0)  -->
<!DOCTYPE svg PUBLIC "-//W3C//DTD SVG 1.1 Tiny//EN" "http://www.w3.org/Graphics/SVG/1.1/DTD/svg11-tiny.dtd">
<svg version="1.1" baseProfile="tiny" xmlns="http://www.w3.org/2000/svg" xmlns:xlink="http://www.w3.org/1999/xlink" x="0px"
	 y="0px" viewBox="0 0 125 125" xml:space="preserve">
<g id="Layer_2" display="none">
	<g id="ieZlzi_1_" display="inline">
		
			<image width="274" height="300" id="ieZlzi" xlink:href="F50BE1FA328F35FB.jpg"  transform="matrix(0.3682 0 0 0.3682 12.8758 11.5547)">
		</image>
	</g>
</g>
<g id="Layer_3">
	<polyline fill="none" stroke="#7F7F7F" stroke-width="0.5" stroke-miterlimit="10" points="50.268,32.546 53.875,32.546 
		53.866,34.51 71.005,34.51 71,32.546 74.68,32.546 	"/>
	<line fill="none" stroke="#7F7F7F" stroke-width="0.5" stroke-miterlimit="10" x1="46.699" y1="65.564" x2="78.196" y2="65.564"/>
	<line fill="none" stroke="#7F7F7F" stroke-width="0.5" stroke-miterlimit="10" x1="62.447" y1="78.542" x2="62.447" y2="65.564"/>
	<polyline fill="none" stroke="#7F7F7F" stroke-width="0.5" stroke-miterlimit="10" points="50.268,92.51 53.875,92.51 
		53.866,90.546 71.005,90.546 71,92.51 74.68,92.51 	"/>
	<circle fill="none" stroke="#000000" stroke-miterlimit="10" cx="62.447" cy="62.5" r="16.042"/>
	<circle fill="none" stroke="#000000" stroke-miterlimit="10" cx="62.447" cy="62.5" r="24.005"/>
	<path fill="none" stroke="#000000" stroke-miterlimit="10" d="M80.912,44.021c-6.783-6.278-11.88-7.242-18.469-7.242
		s-11.686,1.025-18.469,7.303"/>
	<path fill="none" stroke="#000000" stroke-miterlimit="10" d="M80.912,80.568c-6.783,6.278-11.88,7.703-18.469,7.703
		s-11.686-1.487-18.469-7.764"/>
	<g>
		<path fill="none" stroke="#000000" stroke-miterlimit="10" d="M41.49,45.098c-0.46-0.306-1.081-0.18-1.386,0.28l-3.241,4.879
			c-0.306,0.46-0.18,1.081,0.28,1.386l0.963,0.639c0.054,0.036,0.115,0.046,0.173,0.071c1.013-2.41,2.411-4.605,4.161-6.625
			L41.49,45.098z"/>
		<path fill="none" stroke="#000000" stroke-miterlimit="10" d="M37.143,72.058c-0.46,0.306-0.585,0.926-0.28,1.386l3.241,4.879
			c0.306,0.46,0.926,0.585,1.386,0.28l0.48-0.319c-1.698-2.067-3.045-4.314-3.989-6.784L37.143,72.058z"/>
		<path fill="none" stroke="#000000" stroke-miterlimit="10" d="M82.446,45.655c-0.612-0.701-1.262-1.383-1.956-2.044
			c-4.024-3.831-6.14-9.254-6.14-14.809c0,0,0.073-1.518-0.606-2.24c-0.679-0.722-4.565-1.188-11.297-1.188
			c-6.732,0-10.566,0.466-11.244,1.188s-0.606,2.24-0.606,2.24c0,5.556-2.116,10.978-6.14,14.809
			c-0.718,0.683-1.388,1.39-2.017,2.117l0.013,0.009"/>
		<path fill="none" stroke="#000000" stroke-miterlimit="10" d="M86.978,71.438c1.048-2.765,1.602-5.801,1.602-9.153
			c0-3.718-0.674-7.019-1.934-9.992"/>
		<path fill="none" stroke="#000000" stroke-miterlimit="10" d="M41.97,78.284c0.76,0.926,1.587,1.817,2.487,2.673
			c4.024,3.831,6.14,9.254,6.14,14.809c0,0-0.073,1.518,0.606,2.24s4.512,1.188,11.244,1.188c6.732,0,10.618-0.466,11.297-1.188
			c0.679-0.722,0.606-2.24,0.606-2.24c0-5.556,2.116-10.979,6.14-14.809c0.914-0.87,1.754-1.777,2.523-2.72"/>
		<path fill="none" stroke="#000000" stroke-miterlimit="10" d="M38.279,52.353c-1.245,2.96-1.911,6.242-1.911,9.932
			c-0.005,3.387,0.553,6.44,1.614,9.216"/>
		<path fill="none" stroke="#000000" stroke-miterlimit="10" d="M86.671,52.282l0.963-0.639c0.46-0.306,0.585-0.926,0.28-1.386
			l-3.241-4.879c-0.306-0.46-0.926-0.585-1.386-0.28l-0.84,0.558c1.765,2.023,3.176,4.222,4.199,6.637
			C86.654,52.288,86.663,52.287,86.671,52.282z"/>
		<path fill="none" stroke="#000000" stroke-miterlimit="10" d="M86.978,71.438c-0.937,2.473-2.274,4.728-3.964,6.8l0.551,0.366
			c0.46,0.306,1.081,0.18,1.386-0.28l3.241-4.879c0.306-0.46,0.18-1.081-0.28-1.386L86.978,71.438z"/>
	</g>
</g>
<g id="Layer_1" display="none">
	<circle display="inline" fill="none" stroke="#000000" stroke-miterlimit="10" cx="62.5" cy="62.5" r="16.625"/>
	<path display="inline" fill="none" stroke="#7F7F7F" stroke-miterlimit="10" d="M75.346,55.372
		c1.174,2.111,1.842,4.541,1.842,7.128c0,8.112-6.576,14.688-14.688,14.688S47.812,70.612,47.812,62.5
		c0-2.586,0.668-5.015,1.841-7.125L75.346,55.372z"/>
	<circle display="inline" fill="none" stroke="#000000" stroke-miterlimit="10" cx="62.5" cy="62.5" r="19.451"/>
	<circle display="inline" fill="none" stroke="#000000" stroke-miterlimit="10" cx="62.5" cy="62.5" r="22.758"/>
	<path display="inline" fill="none" stroke="#7F7F7F" stroke-miterlimit="10" d="M51.316,30.087C52.375,33,56.565,35.94,65,36.625
		c12.833,1.042,16.616,7.842,18.309,10.596"/>
	<path display="inline" fill="none" stroke="#7F7F7F" stroke-miterlimit="10" d="M55.159,95.798
		c1.17-3.566,6.551-3.473,12.154-4.882c5.603-1.409,11.289-5.959,15.544-12.463"/>
	<g display="inline">
		<path fill="none" stroke="#000000" stroke-miterlimit="10" d="M84.387,74.337c0.592-1.162,1.533-2.513,2.102-2.678
			c1.048-2.858,1.638-5.937,1.638-9.159c0-2.87-0.457-5.633-1.297-8.223c-0.088,0.045-0.169,0.086-0.228,0.116
			c-0.376,0.191-1.591-1.504-2.272-2.841c-0.681-1.337-1.296-3.198-0.789-3.456c0.077-0.039,0.163-0.083,0.252-0.128
			c-0.162-0.248-0.313-0.504-0.484-0.747C78.016,39.462,80,36.75,78.125,33.415c-1.574-2.8-8.375-4.748-16.125-4.748
			s-14.551,1.949-16.125,4.748C44,36.75,45.984,39.462,40.691,47.221c-3.036,4.325-4.817,9.594-4.817,15.279
			s1.782,10.954,4.817,15.279C45.984,85.538,44,88.25,45.875,91.585c1.574,2.799,8.375,4.748,16.125,4.748
			s14.551-1.949,16.125-4.748c1.875-3.335-0.109-6.047,5.184-13.806c0.013-0.019,0.024-0.039,0.038-0.058
			C83.19,77.244,83.776,75.537,84.387,74.337z"/>
		<path fill="none" stroke="#000000" stroke-miterlimit="10" d="M83.347,77.721c0.018,0.054,0.039,0.104,0.077,0.123
			c0.376,0.191,1.49,0.759,1.49,0.759c0.492,0.251,1.094,0.055,1.345-0.437l2.27-4.455c0.251-0.492,0.055-1.094-0.437-1.345
			c0,0-0.866-0.441-1.372-0.699c-0.066-0.034-0.144-0.033-0.23-0.008"/>
		<path fill="none" stroke="#000000" stroke-miterlimit="10" d="M86.489,71.659c-0.569,0.164-1.51,1.516-2.102,2.678
			c-0.611,1.2-1.197,2.907-1.04,3.384"/>
		<path fill="none" stroke="#000000" stroke-miterlimit="10" d="M86.83,54.277c0.474-0.241,1.262-0.643,1.262-0.643
			c0.492-0.251,0.688-0.853,0.437-1.345l-2.27-4.455c-0.251-0.492-0.853-0.688-1.345-0.437c0,0-0.622,0.317-1.121,0.571"/>
		<path fill="none" stroke="#000000" stroke-miterlimit="10" d="M83.793,47.968c-0.089,0.045-0.175,0.089-0.252,0.128
			c-0.507,0.258,0.108,2.119,0.789,3.456c0.681,1.336,1.896,3.032,2.272,2.841c0.059-0.03,0.14-0.071,0.228-0.116"/>
	</g>
</g>
</svg>
