<?xml version="1.0" encoding="utf-8"?>
<!-- Generator: Adobe Illustrator 17.0.0, SVG Export Plug-In . SVG Version: 6.00 Build 0)  -->
<!DOCTYPE svg PUBLIC "-//W3C//DTD SVG 1.1//EN" "http://www.w3.org/Graphics/SVG/1.1/DTD/svg11.dtd">
<svg version="1.1" id="Layer_1" xmlns="http://www.w3.org/2000/svg" xmlns:xlink="http://www.w3.org/1999/xlink" x="0px" y="0px"
	 width="125px" height="125px" viewBox="0 0 125 125" enable-background="new 0 0 125 125" xml:space="preserve">
<path fill="none" stroke="#000000" stroke-miterlimit="10" d="M61.799,100.5c9.875,0,11.706-0.315,15.357-1s6.711-5.853,7.478-10.5
	c0.433-2.625,0.866-3.781,0.866-19.98c0-14.888,0-30.877,0-35.02c0-2.207-2.126-6.752-6.045-8.957
	c-2.061-1.159-5.464-1.543-17.684-1.543s-15.394,0.384-17.455,1.543C40.397,27.248,38.5,31.792,38.5,34c0,4.143,0,20.132,0,35.02
	c0,16.199,0.203,17.355,0.637,19.98c0.767,4.647,3.713,9.814,7.363,10.5S51.924,100.5,61.799,100.5z"/>
<path fill="none" stroke="#000000" stroke-miterlimit="10" d="M61.771,90.583c11.25,0,17.604-0.875,18.604-1.375
	S82.5,87.333,82.5,85.75s-0.002-51.536,0-52.75s-1.146-2.375-2.5-2.896S70.333,28.5,61,28.5s-15.646,1.083-17,1.604
	S41.498,31.786,41.5,33s0,51.167,0,52.75s0.667,2.958,1.667,3.458S50.521,90.583,61.771,90.583z"/>
<path fill="none" stroke="#7F7F7F" stroke-miterlimit="10" d="M78.5,77.5c0,0.552-0.448,1-1,1h-31c-0.552,0-1-0.448-1-1v-40
	c0-0.552,0.448-1,1-1h31c0.552,0,1,0.448,1,1V77.5z"/>
<path fill="none" stroke="#7F7F7F" stroke-miterlimit="10" d="M57.467,95.761c-0.029,0.552-0.499,0.975-1.051,0.946l-7.989-0.419
	c-0.552-0.029-0.975-0.499-0.946-1.051l0.052-0.999c0.029-0.552,0.499-0.975,1.051-0.946l7.989,0.419
	c0.552,0.029,0.975,0.499,0.946,1.051L57.467,95.761z"/>
<path fill="none" stroke="#7F7F7F" stroke-miterlimit="10" d="M77.519,95.238c0.029,0.552-0.395,1.022-0.946,1.051l-7.989,0.419
	c-0.552,0.029-1.022-0.395-1.051-0.946l-0.052-0.999c-0.029-0.552,0.395-1.022,0.946-1.051l7.989-0.419
	c0.552-0.029,1.022,0.395,1.051,0.946L77.519,95.238z"/>
<polyline fill="none" stroke="#000000" stroke-miterlimit="10" points="82,84.5 62,84.5 42,84.5 "/>
</svg>
