<?xml version="1.0" encoding="utf-8"?>
<!-- Generator: Adobe Illustrator 17.1.0, SVG Export Plug-In . SVG Version: 6.00 Build 0)  -->
<!DOCTYPE svg PUBLIC "-//W3C//DTD SVG 1.1 Tiny//EN" "http://www.w3.org/Graphics/SVG/1.1/DTD/svg11-tiny.dtd">
<svg version="1.1" baseProfile="tiny" id="Layer_3" xmlns="http://www.w3.org/2000/svg" xmlns:xlink="http://www.w3.org/1999/xlink"
	 x="0px" y="0px" viewBox="0 0 125 125" xml:space="preserve">
<polyline fill="none" stroke="#7F7F7F" stroke-width="0.5" stroke-miterlimit="10" points="50.268,32.546 53.875,32.546 
	53.866,34.51 71.005,34.51 71,32.546 74.68,32.546 "/>
<line fill="none" stroke="#7F7F7F" stroke-width="0.5" stroke-miterlimit="10" x1="46.699" y1="65.564" x2="78.196" y2="65.564"/>
<line fill="none" stroke="#7F7F7F" stroke-width="0.5" stroke-miterlimit="10" x1="62.447" y1="78.542" x2="62.447" y2="65.564"/>
<polyline fill="none" stroke="#7F7F7F" stroke-width="0.5" stroke-miterlimit="10" points="50.268,92.51 53.875,92.51 
	53.866,90.546 71.005,90.546 71,92.51 74.68,92.51 "/>
<circle fill="none" stroke="#000000" stroke-miterlimit="10" cx="62.447" cy="62.5" r="16.042"/>
<circle fill="none" stroke="#000000" stroke-miterlimit="10" cx="62.447" cy="62.5" r="24.005"/>
<path fill="none" stroke="#000000" stroke-miterlimit="10" d="M80.912,44.021c-6.783-6.278-11.88-7.242-18.469-7.242
	s-11.686,1.025-18.469,7.303"/>
<path fill="none" stroke="#000000" stroke-miterlimit="10" d="M80.912,80.568c-6.783,6.278-11.88,7.703-18.469,7.703
	s-11.686-1.487-18.469-7.764"/>
<g>
	<path fill="none" stroke="#000000" stroke-miterlimit="10" d="M41.49,45.098c-0.46-0.306-1.081-0.18-1.386,0.28l-3.241,4.879
		c-0.306,0.46-0.18,1.081,0.28,1.386l0.963,0.639c0.054,0.036,0.115,0.046,0.173,0.071c1.013-2.41,2.411-4.605,4.161-6.625
		L41.49,45.098z"/>
	<path fill="none" stroke="#000000" stroke-miterlimit="10" d="M37.143,72.058c-0.46,0.306-0.585,0.926-0.28,1.386l3.241,4.879
		c0.306,0.46,0.926,0.585,1.386,0.28l0.48-0.319c-1.698-2.067-3.045-4.314-3.989-6.784L37.143,72.058z"/>
	<path fill="none" stroke="#000000" stroke-miterlimit="10" d="M82.446,45.655c-0.612-0.701-1.262-1.383-1.956-2.044
		c-4.024-3.831-6.14-9.254-6.14-14.809c0,0,0.073-1.518-0.606-2.24c-0.679-0.722-4.565-1.188-11.297-1.188
		c-6.732,0-10.566,0.466-11.244,1.188s-0.606,2.24-0.606,2.24c0,5.556-2.116,10.978-6.14,14.809
		c-0.718,0.683-1.388,1.39-2.017,2.117l0.013,0.009"/>
	<path fill="none" stroke="#000000" stroke-miterlimit="10" d="M86.978,71.438c1.048-2.765,1.602-5.801,1.602-9.153
		c0-3.718-0.674-7.019-1.934-9.992"/>
	<path fill="none" stroke="#000000" stroke-miterlimit="10" d="M41.97,78.284c0.76,0.926,1.587,1.817,2.487,2.673
		c4.024,3.831,6.14,9.254,6.14,14.809c0,0-0.073,1.518,0.606,2.24s4.512,1.188,11.244,1.188c6.732,0,10.618-0.466,11.297-1.188
		c0.679-0.722,0.606-2.24,0.606-2.24c0-5.556,2.116-10.979,6.14-14.809c0.914-0.87,1.754-1.777,2.523-2.72"/>
	<path fill="none" stroke="#000000" stroke-miterlimit="10" d="M38.279,52.353c-1.245,2.96-1.911,6.242-1.911,9.932
		c-0.005,3.387,0.553,6.44,1.614,9.216"/>
	<path fill="none" stroke="#000000" stroke-miterlimit="10" d="M86.671,52.282l0.963-0.639c0.46-0.306,0.585-0.926,0.28-1.386
		l-3.241-4.879c-0.306-0.46-0.926-0.585-1.386-0.28l-0.84,0.558c1.765,2.023,3.176,4.222,4.199,6.637
		C86.654,52.288,86.663,52.287,86.671,52.282z"/>
	<path fill="none" stroke="#000000" stroke-miterlimit="10" d="M86.978,71.438c-0.937,2.473-2.274,4.728-3.964,6.8l0.551,0.366
		c0.46,0.306,1.081,0.18,1.386-0.28l3.241-4.879c0.306-0.46,0.18-1.081-0.28-1.386L86.978,71.438z"/>
</g>
</svg>
