<?xml version="1.0" encoding="utf-8"?>
<!-- Generator: Adobe Illustrator 17.1.0, SVG Export Plug-In . SVG Version: 6.00 Build 0)  -->
<!DOCTYPE svg PUBLIC "-//W3C//DTD SVG 1.1 Tiny//EN" "http://www.w3.org/Graphics/SVG/1.1/DTD/svg11-tiny.dtd">
<svg version="1.1" baseProfile="tiny" id="Layer_1" xmlns="http://www.w3.org/2000/svg" xmlns:xlink="http://www.w3.org/1999/xlink"
	 x="0px" y="0px" viewBox="0 0 125 125" xml:space="preserve">
<circle fill="none" stroke="#000000" stroke-miterlimit="10" cx="62.511" cy="62.5" r="17.343"/>
<path fill="none" stroke="#7F7F7F" stroke-miterlimit="10" d="M75.911,55.064c1.225,2.202,1.922,4.737,1.922,7.436
	c0,8.462-6.86,15.322-15.322,15.322S47.188,70.962,47.188,62.5c0-2.698,0.697-5.232,1.92-7.433L75.911,55.064z"/>
<circle fill="none" stroke="#000000" stroke-miterlimit="10" cx="62.511" cy="62.5" r="20.291"/>
<circle fill="none" stroke="#000000" stroke-miterlimit="10" cx="62.511" cy="62.5" r="23.741"/>
<path fill="none" stroke="#7F7F7F" stroke-miterlimit="10" d="M50.844,28.687c1.105,3.039,5.476,6.106,14.275,6.82
	c13.387,1.087,17.334,8.181,19.1,11.054"/>
<path fill="none" stroke="#7F7F7F" stroke-miterlimit="10" d="M54.853,97.236c1.221-3.72,6.834-3.623,12.679-5.093
	s11.776-6.216,16.215-13.001"/>
<g>
	<path fill="none" stroke="#000000" stroke-miterlimit="10" d="M85.343,74.848c0.618-1.212,1.599-2.622,2.193-2.794
		c1.093-2.981,1.709-6.193,1.709-9.555c0-2.994-0.477-5.876-1.353-8.578c-0.092,0.047-0.176,0.09-0.238,0.121
		c-0.392,0.199-1.66-1.569-2.37-2.964c-0.71-1.395-1.352-3.336-0.823-3.605c0.08-0.041,0.17-0.087,0.263-0.134
		c-0.169-0.259-0.327-0.526-0.505-0.779c-5.522-8.094-3.452-10.923-5.408-14.402c-1.642-2.921-8.737-4.953-16.821-4.953
		s-15.179,2.033-16.821,4.953c-1.956,3.479,0.114,6.308-5.408,14.402c-3.167,4.512-5.025,10.008-5.025,15.939
		s1.859,11.427,5.025,15.939c5.522,8.094,3.452,10.923,5.408,14.402c1.642,2.92,8.737,4.953,16.821,4.953s15.179-2.033,16.821-4.953
		c1.956-3.479-0.114-6.308,5.408-14.402c0.014-0.02,0.025-0.041,0.04-0.061C84.094,77.881,84.705,76.1,85.343,74.848z"/>
	<path fill="none" stroke="#000000" stroke-miterlimit="10" d="M84.258,78.378c0.019,0.056,0.041,0.108,0.08,0.128
		c0.392,0.199,1.554,0.792,1.554,0.792c0.513,0.262,1.141,0.057,1.403-0.456l2.368-4.647c0.262-0.513,0.057-1.141-0.456-1.403
		c0,0-0.903-0.46-1.431-0.729c-0.069-0.035-0.15-0.034-0.24-0.008"/>
	<path fill="none" stroke="#000000" stroke-miterlimit="10" d="M87.535,72.055c-0.594,0.171-1.575,1.581-2.193,2.794
		c-0.637,1.252-1.249,3.033-1.085,3.53"/>
	<path fill="none" stroke="#000000" stroke-miterlimit="10" d="M87.891,53.922c0.494-0.251,1.316-0.671,1.316-0.671
		c0.513-0.262,0.718-0.89,0.456-1.403l-2.368-4.647c-0.262-0.513-0.89-0.718-1.403-0.456c0,0-0.649,0.331-1.169,0.596"/>
	<path fill="none" stroke="#000000" stroke-miterlimit="10" d="M84.723,47.34c-0.093,0.047-0.183,0.093-0.263,0.134
		c-0.529,0.269,0.113,2.211,0.823,3.605c0.71,1.394,1.978,3.163,2.37,2.964c0.062-0.031,0.146-0.074,0.238-0.121"/>
</g>
</svg>
