<?xml version="1.0" encoding="utf-8"?>
<!-- Generator: Adobe Illustrator 17.0.0, SVG Export Plug-In . SVG Version: 6.00 Build 0)  -->
<!DOCTYPE svg PUBLIC "-//W3C//DTD SVG 1.1//EN" "http://www.w3.org/Graphics/SVG/1.1/DTD/svg11.dtd">
<svg version="1.1" xmlns="http://www.w3.org/2000/svg" xmlns:xlink="http://www.w3.org/1999/xlink" x="0px" y="0px" width="125px"
	 height="125px" viewBox="0 0 125 125" enable-background="new 0 0 125 125" xml:space="preserve">
	<circle fill="none" stroke="#000000" stroke-miterlimit="10" cx="62.5" cy="62.5" r="16.625"/>
	<path fill="none" stroke="#7F7F7F" stroke-miterlimit="10" d="M75.346,55.372c1.174,2.111,1.842,4.541,1.842,7.128
		c0,8.112-6.576,14.688-14.688,14.688S47.812,70.612,47.812,62.5c0-2.586,0.668-5.015,1.841-7.125L75.346,55.372z"/>
	<circle fill="none" stroke="#000000" stroke-miterlimit="10" cx="62.5" cy="62.5" r="19.451"/>
	<circle fill="none" stroke="#000000" stroke-miterlimit="10" cx="62.5" cy="62.5" r="22.758"/>
	<path fill="none" stroke="#7F7F7F" stroke-miterlimit="10" d="M51.316,30.087C52.375,33,56.565,35.94,65,36.625
		c12.833,1.042,16.616,7.842,18.309,10.596"/>
	<path fill="none" stroke="#7F7F7F" stroke-miterlimit="10" d="M55.159,95.798c1.17-3.566,6.551-3.473,12.154-4.882
		c5.603-1.409,11.289-5.959,15.544-12.463"/>
	<g>
		<path fill="none" stroke="#000000" stroke-miterlimit="10" d="M84.387,74.337c0.592-1.162,1.533-2.513,2.102-2.678
			c1.048-2.858,1.638-5.937,1.638-9.159c0-2.87-0.457-5.633-1.297-8.223c-0.088,0.045-0.169,0.086-0.228,0.116
			c-0.376,0.191-1.591-1.504-2.272-2.841c-0.681-1.337-1.296-3.198-0.789-3.456c0.077-0.039,0.163-0.083,0.252-0.128
			c-0.162-0.248-0.313-0.504-0.484-0.747C78.016,39.462,80,36.75,78.125,33.415C76.551,30.615,69.75,28.667,62,28.667
			s-14.551,1.949-16.125,4.748C44,36.75,45.984,39.462,40.691,47.221c-3.036,4.325-4.817,9.594-4.817,15.279
			s1.782,10.954,4.817,15.279C45.984,85.538,44,88.25,45.875,91.585c1.574,2.799,8.375,4.748,16.125,4.748
			s14.551-1.949,16.125-4.748c1.875-3.335-0.109-6.047,5.184-13.806c0.013-0.019,0.024-0.039,0.038-0.058
			C83.19,77.244,83.776,75.537,84.387,74.337z"/>
		<path fill="none" stroke="#000000" stroke-miterlimit="10" d="M83.347,77.721c0.018,0.054,0.039,0.104,0.077,0.123
			c0.376,0.191,1.49,0.759,1.49,0.759c0.492,0.251,1.094,0.055,1.345-0.437l2.27-4.455c0.251-0.492,0.055-1.094-0.437-1.345
			c0,0-0.866-0.441-1.372-0.699c-0.066-0.034-0.144-0.033-0.23-0.008"/>
		<path fill="none" stroke="#000000" stroke-miterlimit="10" d="M86.489,71.659c-0.569,0.164-1.51,1.516-2.102,2.678
			c-0.611,1.2-1.197,2.907-1.04,3.384"/>
		<path fill="none" stroke="#000000" stroke-miterlimit="10" d="M86.83,54.277c0.474-0.241,1.262-0.643,1.262-0.643
			c0.492-0.251,0.688-0.853,0.437-1.345l-2.27-4.455c-0.251-0.492-0.853-0.688-1.345-0.437c0,0-0.622,0.317-1.121,0.571"/>
		<path fill="none" stroke="#000000" stroke-miterlimit="10" d="M83.793,47.968c-0.089,0.045-0.175,0.089-0.252,0.128
			c-0.507,0.258,0.108,2.119,0.789,3.456c0.681,1.336,1.896,3.032,2.272,2.841c0.059-0.03,0.14-0.071,0.228-0.116"/>
	</g>
</svg>
