<?xml version="1.0" encoding="utf-8"?>
<!-- Generator: Adobe Illustrator 17.0.0, SVG Export Plug-In . SVG Version: 6.00 Build 0)  -->
<!DOCTYPE svg PUBLIC "-//W3C//DTD SVG 1.1//EN" "http://www.w3.org/Graphics/SVG/1.1/DTD/svg11.dtd">
<svg version="1.1" id="Layer_1" xmlns="http://www.w3.org/2000/svg" xmlns:xlink="http://www.w3.org/1999/xlink" x="0px" y="0px"
	 width="125px" height="125px" viewBox="0 0 125 125" enable-background="new 0 0 125 125" xml:space="preserve">
<g id="Layer_2" display="none">
	
		<image display="inline" overflow="visible" enable-background="new    " width="300" height="300" xlink:href="../../../../../../../Library/Caches/TemporaryItems/pd-03-lg.jpg"  transform="matrix(0.3 0 0 0.3 16 21)">
	</image>
</g>
<path fill="none" stroke="#000000" stroke-miterlimit="10" d="M62,40.56c-11.21,0-20.498,8.22-22.17,18.961
	c1.491,0.107,2.67,1.337,2.67,2.854v0.25c0,1.562-1.247,2.826-2.799,2.867C40.941,76.712,50.45,85.44,62,85.44
	c12.393,0,22.44-10.047,22.44-22.44S74.393,40.56,62,40.56z"/>
<path fill="none" stroke="#000000" stroke-miterlimit="10" d="M36.745,59.5c1.707-12.426,12.36-22,25.255-22
	c14.083,0,25.5,11.417,25.5,25.5S76.083,88.5,62,88.5c-13.24,0-24.12-10.09-25.377-23"/>
<path fill="none" stroke="#000000" stroke-miterlimit="10" d="M34.173,59.52c0.92-7.433,4.747-13.965,10.307-18.422
	c5.02-5.1,5.02-11.224,7.02-12.599s6.73-1.428,7.131-1.428s1.494,1.303,3.369,1.303s2.969-1.303,3.369-1.303S70.5,27.125,72.5,28.5
	s2.002,7.498,7.022,12.598C85.939,46.238,90.05,54.138,90.05,63c0,9.044-4.28,17.088-10.926,22.218
	c-5.02,5.1-4.624,11.078-6.624,12.453S65.77,99.1,65.369,99.1S63.875,97.796,62,97.796S59.031,99.1,58.631,99.1
	c-0.401,0-5.131-0.053-7.131-1.428s-1.604-7.356-6.625-12.455c-6.03-4.658-10.15-11.704-10.851-19.732"/>
<g>
	<path fill="none" stroke="#7F7F7F" stroke-miterlimit="10" d="M61.955,44.644c-8.378,0-15.434,5.604-17.66,13.263
		c1.379,1.135,2.259,2.854,2.259,4.78c0,1.995-0.948,3.764-2.413,4.895c2.024,7.964,9.22,13.863,17.814,13.863
		c10.162,0,18.401-8.238,18.401-18.401S72.117,44.644,61.955,44.644z"/>
</g>
<path fill="none" stroke="#000000" stroke-miterlimit="10" d="M40,59.5h-7.5c-0.552,0-1,0.448-1,1v4c0,0.552,0.448,1,1,1H40"/>
<path fill="none" stroke="#000000" stroke-miterlimit="10" d="M89.834,66.5H91.5c0.552,0,1-0.448,1-1v-6c0-0.552-0.448-1-1-1h-1.809
	"/>
<path fill="none" stroke="#000000" stroke-miterlimit="10" d="M87.46,51.218l1.413-0.883c0.468-0.293,0.611-0.91,0.318-1.378
	l-3.18-5.088c-0.293-0.468-0.91-0.611-1.378-0.318l-1.534,0.959"/>
<path fill="none" stroke="#000000" stroke-miterlimit="10" d="M41.207,44.168l-1.364-0.955c-0.452-0.317-1.076-0.207-1.393,0.246
	l-3.441,4.915c-0.317,0.452-0.207,1.076,0.246,1.393l1.482,1.038"/>
<path fill="none" stroke="#000000" stroke-miterlimit="10" d="M83.75,80.718l1.413,0.883c0.468,0.293,1.085,0.15,1.378-0.318
	l3.18-5.088c0.293-0.468,0.15-1.085-0.318-1.378l-1.534-0.959"/>
</svg>
